<?xml version="1.0" encoding="utf-8" standalone="no"?>
<!DOCTYPE svg PUBLIC "-//W3C//DTD SVG 1.1//EN"
  "http://www.w3.org/Graphics/SVG/1.1/DTD/svg11.dtd">
<svg xmlns:xlink="http://www.w3.org/1999/xlink" width="855.61375pt" height="422.889687pt" viewBox="0 0 855.61375 422.889687" xmlns="http://www.w3.org/2000/svg" version="1.1">
 <metadata>
  <rdf:RDF xmlns:dc="http://purl.org/dc/elements/1.1/" xmlns:cc="http://creativecommons.org/ns#" xmlns:rdf="http://www.w3.org/1999/02/22-rdf-syntax-ns#">
   <cc:Work>
    <dc:type rdf:resource="http://purl.org/dc/dcmitype/StillImage"/>
    <dc:date>2025-08-29T16:53:24.106535</dc:date>
    <dc:format>image/svg+xml</dc:format>
    <dc:creator>
     <cc:Agent>
      <dc:title>Matplotlib v3.9.4, https://matplotlib.org/</dc:title>
     </cc:Agent>
    </dc:creator>
   </cc:Work>
  </rdf:RDF>
 </metadata>
 <defs>
  <style type="text/css">*{stroke-linejoin: round; stroke-linecap: butt}</style>
 </defs>
 <g id="figure_1">
  <g id="patch_1">
   <path d="M 0 422.889687 
L 855.61375 422.889687 
L 855.61375 0 
L 0 0 
z
" style="fill: #ffffff"/>
  </g>
  <g id="axes_1">
   <g id="patch_2">
    <path d="M 55.26375 383.397812 
L 848.41375 383.397812 
L 848.41375 23.837812 
L 55.26375 23.837812 
z
" style="fill: #ffffff"/>
   </g>
   <g id="PolyCollection_1">
    <defs>
     <path id="m1c9779e116" d="M 91.316023 -55.835511 
L 91.316023 -210.5621 
L 98.526477 -210.696627 
L 105.736932 -210.830365 
L 112.947386 -210.962543 
L 120.157841 -211.09243 
L 127.368295 -211.219351 
L 134.57875 -211.342704 
L 141.789205 -211.461975 
L 148.999659 -211.576749 
L 156.210114 -211.686724 
L 163.420568 -211.791715 
L 170.631023 -211.89166 
L 177.841477 -211.986621 
L 185.051932 -212.076783 
L 192.262386 -212.162448 
L 199.472841 -212.244031 
L 206.683295 -212.322045 
L 213.89375 -212.397094 
L 221.104205 -212.469852 
L 228.314659 -212.54105 
L 235.525114 -212.611459 
L 235.525114 -212.611459 
L 243.640777 -212.977523 
L 251.75644 -213.33657 
L 259.872103 -213.682153 
L 267.987766 -214.008915 
L 276.103429 -214.313024 
L 284.219092 -214.592482 
L 292.334756 -214.847289 
L 300.450419 -215.079443 
L 308.566082 -215.292776 
L 316.681745 -215.492645 
L 324.797408 -215.685497 
L 324.797408 -215.685497 
L 332.025934 -216.110274 
L 339.25446 -216.532291 
L 346.482986 -216.948862 
L 353.711511 -217.357452 
L 360.940037 -217.755741 
L 368.168563 -218.141691 
L 375.397089 -218.513602 
L 382.625615 -218.870156 
L 389.854141 -219.210452 
L 397.082667 -219.534035 
L 404.311192 -219.840904 
L 411.539718 -220.131517 
L 418.768244 -220.406772 
L 425.99677 -220.667987 
L 433.225296 -220.916864 
L 440.453822 -221.155441 
L 447.682348 -221.386035 
L 454.910873 -221.611185 
L 462.139399 -221.833573 
L 462.139399 -221.833573 
L 470.151016 -224.407517 
L 478.162632 -226.939892 
L 486.174248 -229.391963 
L 494.185864 -231.730465 
L 502.19748 -233.929876 
L 510.209096 -235.974149 
L 518.220712 -237.857813 
L 526.232329 -239.586341 
L 534.243945 -241.175776 
L 542.255561 -242.651643 
L 550.267177 -244.047206 
L 558.278793 -245.4012 
L 558.278793 -245.4012 
L 565.6364 -249.720869 
L 572.994007 -253.989087 
L 580.351613 -258.156984 
L 587.70922 -262.180719 
L 595.066827 -266.02368 
L 602.424433 -269.658322 
L 609.78204 -273.067543 
L 617.139647 -276.245547 
L 624.497253 -279.19813 
L 631.85486 -281.942393 
L 639.212467 -284.505883 
L 646.570073 -286.92521 
L 653.92768 -289.244217 
L 661.285287 -291.511772 
L 661.285287 -291.511772 
L 670.114415 -301.05387 
L 678.943543 -310.155683 
L 687.772671 -318.464131 
L 696.601799 -325.783269 
L 705.430927 -332.113098 
L 714.260055 -337.649562 
L 723.089183 -342.745742 
L 723.089183 -342.745742 
L 730.528541 -347.110256 
L 737.967899 -351.404283 
L 745.407256 -355.562142 
L 752.846614 -359.527428 
L 760.285972 -363.256863 
L 767.72533 -366.72324 
L 775.164688 -369.917279 
L 782.604046 -372.84826 
L 790.043404 -375.54339 
L 797.482762 -378.045947 
L 804.922119 -380.412336 
L 812.361477 -382.708239 
L 812.361477 -55.835511 
L 812.361477 -55.835511 
L 804.922119 -55.835511 
L 797.482762 -55.835511 
L 790.043404 -55.835511 
L 782.604046 -55.835511 
L 775.164688 -55.835511 
L 767.72533 -55.835511 
L 760.285972 -55.835511 
L 752.846614 -55.835511 
L 745.407256 -55.835511 
L 737.967899 -55.835511 
L 730.528541 -55.835511 
L 723.089183 -55.835511 
L 723.089183 -55.835511 
L 714.260055 -55.835511 
L 705.430927 -55.835511 
L 696.601799 -55.835511 
L 687.772671 -55.835511 
L 678.943543 -55.835511 
L 670.114415 -55.835511 
L 661.285287 -55.835511 
L 661.285287 -55.835511 
L 653.92768 -55.835511 
L 646.570073 -55.835511 
L 639.212467 -55.835511 
L 631.85486 -55.835511 
L 624.497253 -55.835511 
L 617.139647 -55.835511 
L 609.78204 -55.835511 
L 602.424433 -55.835511 
L 595.066827 -55.835511 
L 587.70922 -55.835511 
L 580.351613 -55.835511 
L 572.994007 -55.835511 
L 565.6364 -55.835511 
L 558.278793 -55.835511 
L 558.278793 -55.835511 
L 550.267177 -55.835511 
L 542.255561 -55.835511 
L 534.243945 -55.835511 
L 526.232329 -55.835511 
L 518.220712 -55.835511 
L 510.209096 -55.835511 
L 502.19748 -55.835511 
L 494.185864 -55.835511 
L 486.174248 -55.835511 
L 478.162632 -55.835511 
L 470.151016 -55.835511 
L 462.139399 -55.835511 
L 462.139399 -55.835511 
L 454.910873 -55.835511 
L 447.682348 -55.835511 
L 440.453822 -55.835511 
L 433.225296 -55.835511 
L 425.99677 -55.835511 
L 418.768244 -55.835511 
L 411.539718 -55.835511 
L 404.311192 -55.835511 
L 397.082667 -55.835511 
L 389.854141 -55.835511 
L 382.625615 -55.835511 
L 375.397089 -55.835511 
L 368.168563 -55.835511 
L 360.940037 -55.835511 
L 353.711511 -55.835511 
L 346.482986 -55.835511 
L 339.25446 -55.835511 
L 332.025934 -55.835511 
L 324.797408 -55.835511 
L 324.797408 -55.835511 
L 316.681745 -55.835511 
L 308.566082 -55.835511 
L 300.450419 -55.835511 
L 292.334756 -55.835511 
L 284.219092 -55.835511 
L 276.103429 -55.835511 
L 267.987766 -55.835511 
L 259.872103 -55.835511 
L 251.75644 -55.835511 
L 243.640777 -55.835511 
L 235.525114 -55.835511 
L 235.525114 -55.835511 
L 228.314659 -55.835511 
L 221.104205 -55.835511 
L 213.89375 -55.835511 
L 206.683295 -55.835511 
L 199.472841 -55.835511 
L 192.262386 -55.835511 
L 185.051932 -55.835511 
L 177.841477 -55.835511 
L 170.631023 -55.835511 
L 163.420568 -55.835511 
L 156.210114 -55.835511 
L 148.999659 -55.835511 
L 141.789205 -55.835511 
L 134.57875 -55.835511 
L 127.368295 -55.835511 
L 120.157841 -55.835511 
L 112.947386 -55.835511 
L 105.736932 -55.835511 
L 98.526477 -55.835511 
L 91.316023 -55.835511 
z
" style="stroke: #2c5aa0; stroke-opacity: 0.3"/>
    </defs>
    <g clip-path="url(#p6f74554756)">
     <use xlink:href="#m1c9779e116" x="0" y="422.889687" style="fill: #2c5aa0; fill-opacity: 0.3; stroke: #2c5aa0; stroke-opacity: 0.3"/>
    </g>
   </g>
   <g id="matplotlib.axis_1">
    <g id="xtick_1">
     <g id="line2d_1">
      <path d="M 91.316023 383.397812 
L 91.316023 23.837812 
" clip-path="url(#p6f74554756)" style="fill: none; stroke: #b0b0b0; stroke-opacity: 0.3; stroke-width: 0.8; stroke-linecap: square"/>
     </g>
     <g id="line2d_2">
      <defs>
       <path id="m72fb9e6ef6" d="M 0 0 
L 0 3.5 
" style="stroke: #000000; stroke-width: 0.8"/>
      </defs>
      <g>
       <use xlink:href="#m72fb9e6ef6" x="91.316023" y="383.397812" style="stroke: #000000; stroke-width: 0.8"/>
      </g>
     </g>
     <g id="text_1">
      <!-- 0 -->
      <g transform="translate(88.134773 397.99625) scale(0.1 -0.1)">
       <defs>
        <path id="DejaVuSans-30" d="M 2034 4250 
Q 1547 4250 1301 3770 
Q 1056 3291 1056 2328 
Q 1056 1369 1301 889 
Q 1547 409 2034 409 
Q 2525 409 2770 889 
Q 3016 1369 3016 2328 
Q 3016 3291 2770 3770 
Q 2525 4250 2034 4250 
z
M 2034 4750 
Q 2819 4750 3233 4129 
Q 3647 3509 3647 2328 
Q 3647 1150 3233 529 
Q 2819 -91 2034 -91 
Q 1250 -91 836 529 
Q 422 1150 422 2328 
Q 422 3509 836 4129 
Q 1250 4750 2034 4750 
z
" transform="scale(0.015625)"/>
       </defs>
       <use xlink:href="#DejaVuSans-30"/>
      </g>
     </g>
    </g>
    <g id="xtick_2">
     <g id="line2d_3">
      <path d="M 228.658014 383.397812 
L 228.658014 23.837812 
" clip-path="url(#p6f74554756)" style="fill: none; stroke: #b0b0b0; stroke-opacity: 0.3; stroke-width: 0.8; stroke-linecap: square"/>
     </g>
     <g id="line2d_4">
      <g>
       <use xlink:href="#m72fb9e6ef6" x="228.658014" y="383.397812" style="stroke: #000000; stroke-width: 0.8"/>
      </g>
     </g>
     <g id="text_2">
      <!-- 2 -->
      <g transform="translate(225.476764 397.99625) scale(0.1 -0.1)">
       <defs>
        <path id="DejaVuSans-32" d="M 1228 531 
L 3431 531 
L 3431 0 
L 469 0 
L 469 531 
Q 828 903 1448 1529 
Q 2069 2156 2228 2338 
Q 2531 2678 2651 2914 
Q 2772 3150 2772 3378 
Q 2772 3750 2511 3984 
Q 2250 4219 1831 4219 
Q 1534 4219 1204 4116 
Q 875 4013 500 3803 
L 500 4441 
Q 881 4594 1212 4672 
Q 1544 4750 1819 4750 
Q 2544 4750 2975 4387 
Q 3406 4025 3406 3419 
Q 3406 3131 3298 2873 
Q 3191 2616 2906 2266 
Q 2828 2175 2409 1742 
Q 1991 1309 1228 531 
z
" transform="scale(0.015625)"/>
       </defs>
       <use xlink:href="#DejaVuSans-32"/>
      </g>
     </g>
    </g>
    <g id="xtick_3">
     <g id="line2d_5">
      <path d="M 366.000005 383.397812 
L 366.000005 23.837812 
" clip-path="url(#p6f74554756)" style="fill: none; stroke: #b0b0b0; stroke-opacity: 0.3; stroke-width: 0.8; stroke-linecap: square"/>
     </g>
     <g id="line2d_6">
      <g>
       <use xlink:href="#m72fb9e6ef6" x="366.000005" y="383.397812" style="stroke: #000000; stroke-width: 0.8"/>
      </g>
     </g>
     <g id="text_3">
      <!-- 4 -->
      <g transform="translate(362.818755 397.99625) scale(0.1 -0.1)">
       <defs>
        <path id="DejaVuSans-34" d="M 2419 4116 
L 825 1625 
L 2419 1625 
L 2419 4116 
z
M 2253 4666 
L 3047 4666 
L 3047 1625 
L 3713 1625 
L 3713 1100 
L 3047 1100 
L 3047 0 
L 2419 0 
L 2419 1100 
L 313 1100 
L 313 1709 
L 2253 4666 
z
" transform="scale(0.015625)"/>
       </defs>
       <use xlink:href="#DejaVuSans-34"/>
      </g>
     </g>
    </g>
    <g id="xtick_4">
     <g id="line2d_7">
      <path d="M 503.341997 383.397812 
L 503.341997 23.837812 
" clip-path="url(#p6f74554756)" style="fill: none; stroke: #b0b0b0; stroke-opacity: 0.3; stroke-width: 0.8; stroke-linecap: square"/>
     </g>
     <g id="line2d_8">
      <g>
       <use xlink:href="#m72fb9e6ef6" x="503.341997" y="383.397812" style="stroke: #000000; stroke-width: 0.8"/>
      </g>
     </g>
     <g id="text_4">
      <!-- 6 -->
      <g transform="translate(500.160747 397.99625) scale(0.1 -0.1)">
       <defs>
        <path id="DejaVuSans-36" d="M 2113 2584 
Q 1688 2584 1439 2293 
Q 1191 2003 1191 1497 
Q 1191 994 1439 701 
Q 1688 409 2113 409 
Q 2538 409 2786 701 
Q 3034 994 3034 1497 
Q 3034 2003 2786 2293 
Q 2538 2584 2113 2584 
z
M 3366 4563 
L 3366 3988 
Q 3128 4100 2886 4159 
Q 2644 4219 2406 4219 
Q 1781 4219 1451 3797 
Q 1122 3375 1075 2522 
Q 1259 2794 1537 2939 
Q 1816 3084 2150 3084 
Q 2853 3084 3261 2657 
Q 3669 2231 3669 1497 
Q 3669 778 3244 343 
Q 2819 -91 2113 -91 
Q 1303 -91 875 529 
Q 447 1150 447 2328 
Q 447 3434 972 4092 
Q 1497 4750 2381 4750 
Q 2619 4750 2861 4703 
Q 3103 4656 3366 4563 
z
" transform="scale(0.015625)"/>
       </defs>
       <use xlink:href="#DejaVuSans-36"/>
      </g>
     </g>
    </g>
    <g id="xtick_5">
     <g id="line2d_9">
      <path d="M 640.683988 383.397812 
L 640.683988 23.837812 
" clip-path="url(#p6f74554756)" style="fill: none; stroke: #b0b0b0; stroke-opacity: 0.3; stroke-width: 0.8; stroke-linecap: square"/>
     </g>
     <g id="line2d_10">
      <g>
       <use xlink:href="#m72fb9e6ef6" x="640.683988" y="383.397812" style="stroke: #000000; stroke-width: 0.8"/>
      </g>
     </g>
     <g id="text_5">
      <!-- 8 -->
      <g transform="translate(637.502738 397.99625) scale(0.1 -0.1)">
       <defs>
        <path id="DejaVuSans-38" d="M 2034 2216 
Q 1584 2216 1326 1975 
Q 1069 1734 1069 1313 
Q 1069 891 1326 650 
Q 1584 409 2034 409 
Q 2484 409 2743 651 
Q 3003 894 3003 1313 
Q 3003 1734 2745 1975 
Q 2488 2216 2034 2216 
z
M 1403 2484 
Q 997 2584 770 2862 
Q 544 3141 544 3541 
Q 544 4100 942 4425 
Q 1341 4750 2034 4750 
Q 2731 4750 3128 4425 
Q 3525 4100 3525 3541 
Q 3525 3141 3298 2862 
Q 3072 2584 2669 2484 
Q 3125 2378 3379 2068 
Q 3634 1759 3634 1313 
Q 3634 634 3220 271 
Q 2806 -91 2034 -91 
Q 1263 -91 848 271 
Q 434 634 434 1313 
Q 434 1759 690 2068 
Q 947 2378 1403 2484 
z
M 1172 3481 
Q 1172 3119 1398 2916 
Q 1625 2713 2034 2713 
Q 2441 2713 2670 2916 
Q 2900 3119 2900 3481 
Q 2900 3844 2670 4047 
Q 2441 4250 2034 4250 
Q 1625 4250 1398 4047 
Q 1172 3844 1172 3481 
z
" transform="scale(0.015625)"/>
       </defs>
       <use xlink:href="#DejaVuSans-38"/>
      </g>
     </g>
    </g>
    <g id="xtick_6">
     <g id="line2d_11">
      <path d="M 778.025979 383.397812 
L 778.025979 23.837812 
" clip-path="url(#p6f74554756)" style="fill: none; stroke: #b0b0b0; stroke-opacity: 0.3; stroke-width: 0.8; stroke-linecap: square"/>
     </g>
     <g id="line2d_12">
      <g>
       <use xlink:href="#m72fb9e6ef6" x="778.025979" y="383.397812" style="stroke: #000000; stroke-width: 0.8"/>
      </g>
     </g>
     <g id="text_6">
      <!-- 10 -->
      <g transform="translate(771.663479 397.99625) scale(0.1 -0.1)">
       <defs>
        <path id="DejaVuSans-31" d="M 794 531 
L 1825 531 
L 1825 4091 
L 703 3866 
L 703 4441 
L 1819 4666 
L 2450 4666 
L 2450 531 
L 3481 531 
L 3481 0 
L 794 0 
L 794 531 
z
" transform="scale(0.015625)"/>
       </defs>
       <use xlink:href="#DejaVuSans-31"/>
       <use xlink:href="#DejaVuSans-30" x="63.623047"/>
      </g>
     </g>
    </g>
    <g id="text_7">
     <!-- Distance (km) -->
     <g transform="translate(409.69625 413.194062) scale(0.12 -0.12)">
      <defs>
       <path id="DejaVuSans-44" d="M 1259 4147 
L 1259 519 
L 2022 519 
Q 2988 519 3436 956 
Q 3884 1394 3884 2338 
Q 3884 3275 3436 3711 
Q 2988 4147 2022 4147 
L 1259 4147 
z
M 628 4666 
L 1925 4666 
Q 3281 4666 3915 4102 
Q 4550 3538 4550 2338 
Q 4550 1131 3912 565 
Q 3275 0 1925 0 
L 628 0 
L 628 4666 
z
" transform="scale(0.015625)"/>
       <path id="DejaVuSans-69" d="M 603 3500 
L 1178 3500 
L 1178 0 
L 603 0 
L 603 3500 
z
M 603 4863 
L 1178 4863 
L 1178 4134 
L 603 4134 
L 603 4863 
z
" transform="scale(0.015625)"/>
       <path id="DejaVuSans-73" d="M 2834 3397 
L 2834 2853 
Q 2591 2978 2328 3040 
Q 2066 3103 1784 3103 
Q 1356 3103 1142 2972 
Q 928 2841 928 2578 
Q 928 2378 1081 2264 
Q 1234 2150 1697 2047 
L 1894 2003 
Q 2506 1872 2764 1633 
Q 3022 1394 3022 966 
Q 3022 478 2636 193 
Q 2250 -91 1575 -91 
Q 1294 -91 989 -36 
Q 684 19 347 128 
L 347 722 
Q 666 556 975 473 
Q 1284 391 1588 391 
Q 1994 391 2212 530 
Q 2431 669 2431 922 
Q 2431 1156 2273 1281 
Q 2116 1406 1581 1522 
L 1381 1569 
Q 847 1681 609 1914 
Q 372 2147 372 2553 
Q 372 3047 722 3315 
Q 1072 3584 1716 3584 
Q 2034 3584 2315 3537 
Q 2597 3491 2834 3397 
z
" transform="scale(0.015625)"/>
       <path id="DejaVuSans-74" d="M 1172 4494 
L 1172 3500 
L 2356 3500 
L 2356 3053 
L 1172 3053 
L 1172 1153 
Q 1172 725 1289 603 
Q 1406 481 1766 481 
L 2356 481 
L 2356 0 
L 1766 0 
Q 1100 0 847 248 
Q 594 497 594 1153 
L 594 3053 
L 172 3053 
L 172 3500 
L 594 3500 
L 594 4494 
L 1172 4494 
z
" transform="scale(0.015625)"/>
       <path id="DejaVuSans-61" d="M 2194 1759 
Q 1497 1759 1228 1600 
Q 959 1441 959 1056 
Q 959 750 1161 570 
Q 1363 391 1709 391 
Q 2188 391 2477 730 
Q 2766 1069 2766 1631 
L 2766 1759 
L 2194 1759 
z
M 3341 1997 
L 3341 0 
L 2766 0 
L 2766 531 
Q 2569 213 2275 61 
Q 1981 -91 1556 -91 
Q 1019 -91 701 211 
Q 384 513 384 1019 
Q 384 1609 779 1909 
Q 1175 2209 1959 2209 
L 2766 2209 
L 2766 2266 
Q 2766 2663 2505 2880 
Q 2244 3097 1772 3097 
Q 1472 3097 1187 3025 
Q 903 2953 641 2809 
L 641 3341 
Q 956 3463 1253 3523 
Q 1550 3584 1831 3584 
Q 2591 3584 2966 3190 
Q 3341 2797 3341 1997 
z
" transform="scale(0.015625)"/>
       <path id="DejaVuSans-6e" d="M 3513 2113 
L 3513 0 
L 2938 0 
L 2938 2094 
Q 2938 2591 2744 2837 
Q 2550 3084 2163 3084 
Q 1697 3084 1428 2787 
Q 1159 2491 1159 1978 
L 1159 0 
L 581 0 
L 581 3500 
L 1159 3500 
L 1159 2956 
Q 1366 3272 1645 3428 
Q 1925 3584 2291 3584 
Q 2894 3584 3203 3211 
Q 3513 2838 3513 2113 
z
" transform="scale(0.015625)"/>
       <path id="DejaVuSans-63" d="M 3122 3366 
L 3122 2828 
Q 2878 2963 2633 3030 
Q 2388 3097 2138 3097 
Q 1578 3097 1268 2742 
Q 959 2388 959 1747 
Q 959 1106 1268 751 
Q 1578 397 2138 397 
Q 2388 397 2633 464 
Q 2878 531 3122 666 
L 3122 134 
Q 2881 22 2623 -34 
Q 2366 -91 2075 -91 
Q 1284 -91 818 406 
Q 353 903 353 1747 
Q 353 2603 823 3093 
Q 1294 3584 2113 3584 
Q 2378 3584 2631 3529 
Q 2884 3475 3122 3366 
z
" transform="scale(0.015625)"/>
       <path id="DejaVuSans-65" d="M 3597 1894 
L 3597 1613 
L 953 1613 
Q 991 1019 1311 708 
Q 1631 397 2203 397 
Q 2534 397 2845 478 
Q 3156 559 3463 722 
L 3463 178 
Q 3153 47 2828 -22 
Q 2503 -91 2169 -91 
Q 1331 -91 842 396 
Q 353 884 353 1716 
Q 353 2575 817 3079 
Q 1281 3584 2069 3584 
Q 2775 3584 3186 3129 
Q 3597 2675 3597 1894 
z
M 3022 2063 
Q 3016 2534 2758 2815 
Q 2500 3097 2075 3097 
Q 1594 3097 1305 2825 
Q 1016 2553 972 2059 
L 3022 2063 
z
" transform="scale(0.015625)"/>
       <path id="DejaVuSans-20" transform="scale(0.015625)"/>
       <path id="DejaVuSans-28" d="M 1984 4856 
Q 1566 4138 1362 3434 
Q 1159 2731 1159 2009 
Q 1159 1288 1364 580 
Q 1569 -128 1984 -844 
L 1484 -844 
Q 1016 -109 783 600 
Q 550 1309 550 2009 
Q 550 2706 781 3412 
Q 1013 4119 1484 4856 
L 1984 4856 
z
" transform="scale(0.015625)"/>
       <path id="DejaVuSans-6b" d="M 581 4863 
L 1159 4863 
L 1159 1991 
L 2875 3500 
L 3609 3500 
L 1753 1863 
L 3688 0 
L 2938 0 
L 1159 1709 
L 1159 0 
L 581 0 
L 581 4863 
z
" transform="scale(0.015625)"/>
       <path id="DejaVuSans-6d" d="M 3328 2828 
Q 3544 3216 3844 3400 
Q 4144 3584 4550 3584 
Q 5097 3584 5394 3201 
Q 5691 2819 5691 2113 
L 5691 0 
L 5113 0 
L 5113 2094 
Q 5113 2597 4934 2840 
Q 4756 3084 4391 3084 
Q 3944 3084 3684 2787 
Q 3425 2491 3425 1978 
L 3425 0 
L 2847 0 
L 2847 2094 
Q 2847 2600 2669 2842 
Q 2491 3084 2119 3084 
Q 1678 3084 1418 2786 
Q 1159 2488 1159 1978 
L 1159 0 
L 581 0 
L 581 3500 
L 1159 3500 
L 1159 2956 
Q 1356 3278 1631 3431 
Q 1906 3584 2284 3584 
Q 2666 3584 2933 3390 
Q 3200 3197 3328 2828 
z
" transform="scale(0.015625)"/>
       <path id="DejaVuSans-29" d="M 513 4856 
L 1013 4856 
Q 1481 4119 1714 3412 
Q 1947 2706 1947 2009 
Q 1947 1309 1714 600 
Q 1481 -109 1013 -844 
L 513 -844 
Q 928 -128 1133 580 
Q 1338 1288 1338 2009 
Q 1338 2731 1133 3434 
Q 928 4138 513 4856 
z
" transform="scale(0.015625)"/>
      </defs>
      <use xlink:href="#DejaVuSans-44"/>
      <use xlink:href="#DejaVuSans-69" x="77.001953"/>
      <use xlink:href="#DejaVuSans-73" x="104.785156"/>
      <use xlink:href="#DejaVuSans-74" x="156.884766"/>
      <use xlink:href="#DejaVuSans-61" x="196.09375"/>
      <use xlink:href="#DejaVuSans-6e" x="257.373047"/>
      <use xlink:href="#DejaVuSans-63" x="320.751953"/>
      <use xlink:href="#DejaVuSans-65" x="375.732422"/>
      <use xlink:href="#DejaVuSans-20" x="437.255859"/>
      <use xlink:href="#DejaVuSans-28" x="469.042969"/>
      <use xlink:href="#DejaVuSans-6b" x="508.056641"/>
      <use xlink:href="#DejaVuSans-6d" x="565.966797"/>
      <use xlink:href="#DejaVuSans-29" x="663.378906"/>
     </g>
    </g>
   </g>
   <g id="matplotlib.axis_2">
    <g id="ytick_1">
     <g id="line2d_13">
      <path d="M 55.26375 367.054176 
L 848.41375 367.054176 
" clip-path="url(#p6f74554756)" style="fill: none; stroke: #b0b0b0; stroke-opacity: 0.3; stroke-width: 0.8; stroke-linecap: square"/>
     </g>
     <g id="line2d_14">
      <defs>
       <path id="m800093a863" d="M 0 0 
L -3.5 0 
" style="stroke: #000000; stroke-width: 0.8"/>
      </defs>
      <g>
       <use xlink:href="#m800093a863" x="55.26375" y="367.054176" style="stroke: #000000; stroke-width: 0.8"/>
      </g>
     </g>
     <g id="text_8">
      <!-- 0 -->
      <g transform="translate(41.90125 370.853395) scale(0.1 -0.1)">
       <use xlink:href="#DejaVuSans-30"/>
      </g>
     </g>
    </g>
    <g id="ytick_2">
     <g id="line2d_15">
      <path d="M 55.26375 315.820206 
L 848.41375 315.820206 
" clip-path="url(#p6f74554756)" style="fill: none; stroke: #b0b0b0; stroke-opacity: 0.3; stroke-width: 0.8; stroke-linecap: square"/>
     </g>
     <g id="line2d_16">
      <g>
       <use xlink:href="#m800093a863" x="55.26375" y="315.820206" style="stroke: #000000; stroke-width: 0.8"/>
      </g>
     </g>
     <g id="text_9">
      <!-- 500 -->
      <g transform="translate(29.17625 319.619425) scale(0.1 -0.1)">
       <defs>
        <path id="DejaVuSans-35" d="M 691 4666 
L 3169 4666 
L 3169 4134 
L 1269 4134 
L 1269 2991 
Q 1406 3038 1543 3061 
Q 1681 3084 1819 3084 
Q 2600 3084 3056 2656 
Q 3513 2228 3513 1497 
Q 3513 744 3044 326 
Q 2575 -91 1722 -91 
Q 1428 -91 1123 -41 
Q 819 9 494 109 
L 494 744 
Q 775 591 1075 516 
Q 1375 441 1709 441 
Q 2250 441 2565 725 
Q 2881 1009 2881 1497 
Q 2881 1984 2565 2268 
Q 2250 2553 1709 2553 
Q 1456 2553 1204 2497 
Q 953 2441 691 2322 
L 691 4666 
z
" transform="scale(0.015625)"/>
       </defs>
       <use xlink:href="#DejaVuSans-35"/>
       <use xlink:href="#DejaVuSans-30" x="63.623047"/>
       <use xlink:href="#DejaVuSans-30" x="127.246094"/>
      </g>
     </g>
    </g>
    <g id="ytick_3">
     <g id="line2d_17">
      <path d="M 55.26375 264.586237 
L 848.41375 264.586237 
" clip-path="url(#p6f74554756)" style="fill: none; stroke: #b0b0b0; stroke-opacity: 0.3; stroke-width: 0.8; stroke-linecap: square"/>
     </g>
     <g id="line2d_18">
      <g>
       <use xlink:href="#m800093a863" x="55.26375" y="264.586237" style="stroke: #000000; stroke-width: 0.8"/>
      </g>
     </g>
     <g id="text_10">
      <!-- 1000 -->
      <g transform="translate(22.81375 268.385455) scale(0.1 -0.1)">
       <use xlink:href="#DejaVuSans-31"/>
       <use xlink:href="#DejaVuSans-30" x="63.623047"/>
       <use xlink:href="#DejaVuSans-30" x="127.246094"/>
       <use xlink:href="#DejaVuSans-30" x="190.869141"/>
      </g>
     </g>
    </g>
    <g id="ytick_4">
     <g id="line2d_19">
      <path d="M 55.26375 213.352267 
L 848.41375 213.352267 
" clip-path="url(#p6f74554756)" style="fill: none; stroke: #b0b0b0; stroke-opacity: 0.3; stroke-width: 0.8; stroke-linecap: square"/>
     </g>
     <g id="line2d_20">
      <g>
       <use xlink:href="#m800093a863" x="55.26375" y="213.352267" style="stroke: #000000; stroke-width: 0.8"/>
      </g>
     </g>
     <g id="text_11">
      <!-- 1500 -->
      <g transform="translate(22.81375 217.151486) scale(0.1 -0.1)">
       <use xlink:href="#DejaVuSans-31"/>
       <use xlink:href="#DejaVuSans-35" x="63.623047"/>
       <use xlink:href="#DejaVuSans-30" x="127.246094"/>
       <use xlink:href="#DejaVuSans-30" x="190.869141"/>
      </g>
     </g>
    </g>
    <g id="ytick_5">
     <g id="line2d_21">
      <path d="M 55.26375 162.118297 
L 848.41375 162.118297 
" clip-path="url(#p6f74554756)" style="fill: none; stroke: #b0b0b0; stroke-opacity: 0.3; stroke-width: 0.8; stroke-linecap: square"/>
     </g>
     <g id="line2d_22">
      <g>
       <use xlink:href="#m800093a863" x="55.26375" y="162.118297" style="stroke: #000000; stroke-width: 0.8"/>
      </g>
     </g>
     <g id="text_12">
      <!-- 2000 -->
      <g transform="translate(22.81375 165.917516) scale(0.1 -0.1)">
       <use xlink:href="#DejaVuSans-32"/>
       <use xlink:href="#DejaVuSans-30" x="63.623047"/>
       <use xlink:href="#DejaVuSans-30" x="127.246094"/>
       <use xlink:href="#DejaVuSans-30" x="190.869141"/>
      </g>
     </g>
    </g>
    <g id="ytick_6">
     <g id="line2d_23">
      <path d="M 55.26375 110.884327 
L 848.41375 110.884327 
" clip-path="url(#p6f74554756)" style="fill: none; stroke: #b0b0b0; stroke-opacity: 0.3; stroke-width: 0.8; stroke-linecap: square"/>
     </g>
     <g id="line2d_24">
      <g>
       <use xlink:href="#m800093a863" x="55.26375" y="110.884327" style="stroke: #000000; stroke-width: 0.8"/>
      </g>
     </g>
     <g id="text_13">
      <!-- 2500 -->
      <g transform="translate(22.81375 114.683546) scale(0.1 -0.1)">
       <use xlink:href="#DejaVuSans-32"/>
       <use xlink:href="#DejaVuSans-35" x="63.623047"/>
       <use xlink:href="#DejaVuSans-30" x="127.246094"/>
       <use xlink:href="#DejaVuSans-30" x="190.869141"/>
      </g>
     </g>
    </g>
    <g id="ytick_7">
     <g id="line2d_25">
      <path d="M 55.26375 59.650357 
L 848.41375 59.650357 
" clip-path="url(#p6f74554756)" style="fill: none; stroke: #b0b0b0; stroke-opacity: 0.3; stroke-width: 0.8; stroke-linecap: square"/>
     </g>
     <g id="line2d_26">
      <g>
       <use xlink:href="#m800093a863" x="55.26375" y="59.650357" style="stroke: #000000; stroke-width: 0.8"/>
      </g>
     </g>
     <g id="text_14">
      <!-- 3000 -->
      <g transform="translate(22.81375 63.449576) scale(0.1 -0.1)">
       <defs>
        <path id="DejaVuSans-33" d="M 2597 2516 
Q 3050 2419 3304 2112 
Q 3559 1806 3559 1356 
Q 3559 666 3084 287 
Q 2609 -91 1734 -91 
Q 1441 -91 1130 -33 
Q 819 25 488 141 
L 488 750 
Q 750 597 1062 519 
Q 1375 441 1716 441 
Q 2309 441 2620 675 
Q 2931 909 2931 1356 
Q 2931 1769 2642 2001 
Q 2353 2234 1838 2234 
L 1294 2234 
L 1294 2753 
L 1863 2753 
Q 2328 2753 2575 2939 
Q 2822 3125 2822 3475 
Q 2822 3834 2567 4026 
Q 2313 4219 1838 4219 
Q 1578 4219 1281 4162 
Q 984 4106 628 3988 
L 628 4550 
Q 988 4650 1302 4700 
Q 1616 4750 1894 4750 
Q 2613 4750 3031 4423 
Q 3450 4097 3450 3541 
Q 3450 3153 3228 2886 
Q 3006 2619 2597 2516 
z
" transform="scale(0.015625)"/>
       </defs>
       <use xlink:href="#DejaVuSans-33"/>
       <use xlink:href="#DejaVuSans-30" x="63.623047"/>
       <use xlink:href="#DejaVuSans-30" x="127.246094"/>
       <use xlink:href="#DejaVuSans-30" x="190.869141"/>
      </g>
     </g>
    </g>
    <g id="text_15">
     <!-- Elevation (m) -->
     <g transform="translate(16.318125 243.921875) rotate(-90) scale(0.12 -0.12)">
      <defs>
       <path id="DejaVuSans-45" d="M 628 4666 
L 3578 4666 
L 3578 4134 
L 1259 4134 
L 1259 2753 
L 3481 2753 
L 3481 2222 
L 1259 2222 
L 1259 531 
L 3634 531 
L 3634 0 
L 628 0 
L 628 4666 
z
" transform="scale(0.015625)"/>
       <path id="DejaVuSans-6c" d="M 603 4863 
L 1178 4863 
L 1178 0 
L 603 0 
L 603 4863 
z
" transform="scale(0.015625)"/>
       <path id="DejaVuSans-76" d="M 191 3500 
L 800 3500 
L 1894 563 
L 2988 3500 
L 3597 3500 
L 2284 0 
L 1503 0 
L 191 3500 
z
" transform="scale(0.015625)"/>
       <path id="DejaVuSans-6f" d="M 1959 3097 
Q 1497 3097 1228 2736 
Q 959 2375 959 1747 
Q 959 1119 1226 758 
Q 1494 397 1959 397 
Q 2419 397 2687 759 
Q 2956 1122 2956 1747 
Q 2956 2369 2687 2733 
Q 2419 3097 1959 3097 
z
M 1959 3584 
Q 2709 3584 3137 3096 
Q 3566 2609 3566 1747 
Q 3566 888 3137 398 
Q 2709 -91 1959 -91 
Q 1206 -91 779 398 
Q 353 888 353 1747 
Q 353 2609 779 3096 
Q 1206 3584 1959 3584 
z
" transform="scale(0.015625)"/>
      </defs>
      <use xlink:href="#DejaVuSans-45"/>
      <use xlink:href="#DejaVuSans-6c" x="63.183594"/>
      <use xlink:href="#DejaVuSans-65" x="90.966797"/>
      <use xlink:href="#DejaVuSans-76" x="152.490234"/>
      <use xlink:href="#DejaVuSans-61" x="211.669922"/>
      <use xlink:href="#DejaVuSans-74" x="272.949219"/>
      <use xlink:href="#DejaVuSans-69" x="312.158203"/>
      <use xlink:href="#DejaVuSans-6f" x="339.941406"/>
      <use xlink:href="#DejaVuSans-6e" x="401.123047"/>
      <use xlink:href="#DejaVuSans-20" x="464.501953"/>
      <use xlink:href="#DejaVuSans-28" x="496.289062"/>
      <use xlink:href="#DejaVuSans-6d" x="535.302734"/>
      <use xlink:href="#DejaVuSans-29" x="632.714844"/>
     </g>
    </g>
   </g>
   <g id="line2d_27">
    <path d="M 91.316023 212.327587 
L 98.526477 212.19306 
L 105.736932 212.059323 
L 112.947386 211.927145 
L 120.157841 211.797257 
L 127.368295 211.670336 
L 134.57875 211.546983 
L 141.789205 211.427713 
L 148.999659 211.312938 
L 156.210114 211.202963 
L 163.420568 211.097972 
L 170.631023 210.998027 
L 177.841477 210.903066 
L 185.051932 210.812905 
L 192.262386 210.72724 
L 199.472841 210.645657 
L 206.683295 210.567642 
L 213.89375 210.492593 
L 221.104205 210.419836 
L 228.314659 210.348637 
L 235.525114 210.278229 
L 235.525114 210.278229 
L 243.640777 209.912165 
L 251.75644 209.553117 
L 259.872103 209.207534 
L 267.987766 208.880772 
L 276.103429 208.576664 
L 284.219092 208.297206 
L 292.334756 208.042398 
L 300.450419 207.810244 
L 308.566082 207.596911 
L 316.681745 207.397043 
L 324.797408 207.20419 
L 324.797408 207.20419 
L 332.025934 206.779413 
L 339.25446 206.357397 
L 346.482986 205.940825 
L 353.711511 205.532236 
L 360.940037 205.133947 
L 368.168563 204.747996 
L 375.397089 204.376085 
L 382.625615 204.019532 
L 389.854141 203.679236 
L 397.082667 203.355653 
L 404.311192 203.048783 
L 411.539718 202.75817 
L 418.768244 202.482915 
L 425.99677 202.2217 
L 433.225296 201.972823 
L 440.453822 201.734247 
L 447.682348 201.503652 
L 454.910873 201.278503 
L 462.139399 201.056114 
L 462.139399 201.056114 
L 470.151016 198.48217 
L 478.162632 195.949795 
L 486.174248 193.497725 
L 494.185864 191.159222 
L 502.19748 188.959812 
L 510.209096 186.915538 
L 518.220712 185.031874 
L 526.232329 183.303347 
L 534.243945 181.713912 
L 542.255561 180.238044 
L 550.267177 178.842482 
L 558.278793 177.488488 
L 558.278793 177.488488 
L 565.6364 173.168819 
L 572.994007 168.9006 
L 580.351613 164.732704 
L 587.70922 160.708969 
L 595.066827 156.866007 
L 602.424433 153.231365 
L 609.78204 149.822144 
L 617.139647 146.644141 
L 624.497253 143.691558 
L 631.85486 140.947295 
L 639.212467 138.383805 
L 646.570073 135.964477 
L 653.92768 133.645471 
L 661.285287 131.377915 
L 661.285287 131.377915 
L 670.114415 121.835818 
L 678.943543 112.734005 
L 687.772671 104.425557 
L 696.601799 97.106418 
L 705.430927 90.776589 
L 714.260055 85.240125 
L 723.089183 80.143945 
L 723.089183 80.143945 
L 730.528541 75.779432 
L 737.967899 71.485404 
L 745.407256 67.327546 
L 752.846614 63.362259 
L 760.285972 59.632824 
L 767.72533 56.166447 
L 775.164688 52.972408 
L 782.604046 50.041427 
L 790.043404 47.346298 
L 797.482762 44.84374 
L 804.922119 42.477351 
L 812.361477 40.181449 
" clip-path="url(#p6f74554756)" style="fill: none; stroke: #2c5aa0; stroke-width: 2; stroke-linecap: square"/>
   </g>
   <g id="patch_3">
    <path d="M 55.26375 383.397812 
L 55.26375 23.837812 
" style="fill: none; stroke: #000000; stroke-width: 0.8; stroke-linejoin: miter; stroke-linecap: square"/>
   </g>
   <g id="patch_4">
    <path d="M 848.41375 383.397812 
L 848.41375 23.837812 
" style="fill: none; stroke: #000000; stroke-width: 0.8; stroke-linejoin: miter; stroke-linecap: square"/>
   </g>
   <g id="patch_5">
    <path d="M 55.26375 383.397812 
L 848.41375 383.397812 
" style="fill: none; stroke: #000000; stroke-width: 0.8; stroke-linejoin: miter; stroke-linecap: square"/>
   </g>
   <g id="patch_6">
    <path d="M 55.26375 23.837812 
L 848.41375 23.837812 
" style="fill: none; stroke: #000000; stroke-width: 0.8; stroke-linejoin: miter; stroke-linecap: square"/>
   </g>
   <g id="text_16">
    <!-- 上高地BT -->
    <g transform="translate(78.926648 202.327587) scale(0.08 -0.08)">
     <defs>
      <path id="DejaVuSans-4e0a" d="M 319 -1131 
L 319 4513 
L 3519 4513 
L 3519 -1131 
L 319 -1131 
z
M 678 -775 
L 3163 -775 
L 3163 4153 
L 678 4153 
L 678 -775 
z
" transform="scale(0.015625)"/>
      <path id="DejaVuSans-9ad8" d="M 319 -1131 
L 319 4513 
L 3519 4513 
L 3519 -1131 
L 319 -1131 
z
M 678 -775 
L 3163 -775 
L 3163 4153 
L 678 4153 
L 678 -775 
z
" transform="scale(0.015625)"/>
      <path id="DejaVuSans-5730" d="M 319 -1131 
L 319 4513 
L 3519 4513 
L 3519 -1131 
L 319 -1131 
z
M 678 -775 
L 3163 -775 
L 3163 4153 
L 678 4153 
L 678 -775 
z
" transform="scale(0.015625)"/>
      <path id="DejaVuSans-42" d="M 1259 2228 
L 1259 519 
L 2272 519 
Q 2781 519 3026 730 
Q 3272 941 3272 1375 
Q 3272 1813 3026 2020 
Q 2781 2228 2272 2228 
L 1259 2228 
z
M 1259 4147 
L 1259 2741 
L 2194 2741 
Q 2656 2741 2882 2914 
Q 3109 3088 3109 3444 
Q 3109 3797 2882 3972 
Q 2656 4147 2194 4147 
L 1259 4147 
z
M 628 4666 
L 2241 4666 
Q 2963 4666 3353 4366 
Q 3744 4066 3744 3513 
Q 3744 3084 3544 2831 
Q 3344 2578 2956 2516 
Q 3422 2416 3680 2098 
Q 3938 1781 3938 1306 
Q 3938 681 3513 340 
Q 3088 0 2303 0 
L 628 0 
L 628 4666 
z
" transform="scale(0.015625)"/>
      <path id="DejaVuSans-54" d="M -19 4666 
L 3928 4666 
L 3928 4134 
L 2272 4134 
L 2272 0 
L 1638 0 
L 1638 4134 
L -19 4134 
L -19 4666 
z
" transform="scale(0.015625)"/>
     </defs>
     <use xlink:href="#DejaVuSans-4e0a"/>
     <use xlink:href="#DejaVuSans-9ad8" x="60.009766"/>
     <use xlink:href="#DejaVuSans-5730" x="120.019531"/>
     <use xlink:href="#DejaVuSans-42" x="180.029297"/>
     <use xlink:href="#DejaVuSans-54" x="248.632812"/>
    </g>
   </g>
   <g id="text_17">
    <!-- 明神池 -->
    <g transform="translate(228.323239 200.278229) scale(0.08 -0.08)">
     <defs>
      <path id="DejaVuSans-660e" d="M 319 -1131 
L 319 4513 
L 3519 4513 
L 3519 -1131 
L 319 -1131 
z
M 678 -775 
L 3163 -775 
L 3163 4153 
L 678 4153 
L 678 -775 
z
" transform="scale(0.015625)"/>
      <path id="DejaVuSans-795e" d="M 319 -1131 
L 319 4513 
L 3519 4513 
L 3519 -1131 
L 319 -1131 
z
M 678 -775 
L 3163 -775 
L 3163 4153 
L 678 4153 
L 678 -775 
z
" transform="scale(0.015625)"/>
      <path id="DejaVuSans-6c60" d="M 319 -1131 
L 319 4513 
L 3519 4513 
L 3519 -1131 
L 319 -1131 
z
M 678 -775 
L 3163 -775 
L 3163 4153 
L 678 4153 
L 678 -775 
z
" transform="scale(0.015625)"/>
     </defs>
     <use xlink:href="#DejaVuSans-660e"/>
     <use xlink:href="#DejaVuSans-795e" x="60.009766"/>
     <use xlink:href="#DejaVuSans-6c60" x="120.019531"/>
    </g>
   </g>
   <g id="text_18">
    <!-- 徳沢ロッヂ -->
    <g transform="translate(312.794283 197.20419) scale(0.08 -0.08)">
     <defs>
      <path id="DejaVuSans-5fb3" d="M 319 -1131 
L 319 4513 
L 3519 4513 
L 3519 -1131 
L 319 -1131 
z
M 678 -775 
L 3163 -775 
L 3163 4153 
L 678 4153 
L 678 -775 
z
" transform="scale(0.015625)"/>
      <path id="DejaVuSans-6ca2" d="M 319 -1131 
L 319 4513 
L 3519 4513 
L 3519 -1131 
L 319 -1131 
z
M 678 -775 
L 3163 -775 
L 3163 4153 
L 678 4153 
L 678 -775 
z
" transform="scale(0.015625)"/>
      <path id="DejaVuSans-30ed" d="M 319 -1131 
L 319 4513 
L 3519 4513 
L 3519 -1131 
L 319 -1131 
z
M 678 -775 
L 3163 -775 
L 3163 4153 
L 678 4153 
L 678 -775 
z
" transform="scale(0.015625)"/>
      <path id="DejaVuSans-30c3" d="M 319 -1131 
L 319 4513 
L 3519 4513 
L 3519 -1131 
L 319 -1131 
z
M 678 -775 
L 3163 -775 
L 3163 4153 
L 678 4153 
L 678 -775 
z
" transform="scale(0.015625)"/>
      <path id="DejaVuSans-30c2" d="M 319 -1131 
L 319 4513 
L 3519 4513 
L 3519 -1131 
L 319 -1131 
z
M 678 -775 
L 3163 -775 
L 3163 4153 
L 678 4153 
L 678 -775 
z
" transform="scale(0.015625)"/>
     </defs>
     <use xlink:href="#DejaVuSans-5fb3"/>
     <use xlink:href="#DejaVuSans-6ca2" x="60.009766"/>
     <use xlink:href="#DejaVuSans-30ed" x="120.019531"/>
     <use xlink:href="#DejaVuSans-30c3" x="180.029297"/>
     <use xlink:href="#DejaVuSans-30c2" x="240.039062"/>
    </g>
   </g>
   <g id="text_19">
    <!-- 横尾山荘 -->
    <g transform="translate(452.536899 191.056114) scale(0.08 -0.08)">
     <defs>
      <path id="DejaVuSans-6a2a" d="M 319 -1131 
L 319 4513 
L 3519 4513 
L 3519 -1131 
L 319 -1131 
z
M 678 -775 
L 3163 -775 
L 3163 4153 
L 678 4153 
L 678 -775 
z
" transform="scale(0.015625)"/>
      <path id="DejaVuSans-5c3e" d="M 319 -1131 
L 319 4513 
L 3519 4513 
L 3519 -1131 
L 319 -1131 
z
M 678 -775 
L 3163 -775 
L 3163 4153 
L 678 4153 
L 678 -775 
z
" transform="scale(0.015625)"/>
      <path id="DejaVuSans-5c71" d="M 319 -1131 
L 319 4513 
L 3519 4513 
L 3519 -1131 
L 319 -1131 
z
M 678 -775 
L 3163 -775 
L 3163 4153 
L 678 4153 
L 678 -775 
z
" transform="scale(0.015625)"/>
      <path id="DejaVuSans-8358" d="M 319 -1131 
L 319 4513 
L 3519 4513 
L 3519 -1131 
L 319 -1131 
z
M 678 -775 
L 3163 -775 
L 3163 4153 
L 678 4153 
L 678 -775 
z
" transform="scale(0.015625)"/>
     </defs>
     <use xlink:href="#DejaVuSans-6a2a"/>
     <use xlink:href="#DejaVuSans-5c3e" x="60.009766"/>
     <use xlink:href="#DejaVuSans-5c71" x="120.019531"/>
     <use xlink:href="#DejaVuSans-8358" x="180.029297"/>
    </g>
   </g>
   <g id="text_20">
    <!-- 本谷橋 -->
    <g transform="translate(551.076918 167.488488) scale(0.08 -0.08)">
     <defs>
      <path id="DejaVuSans-672c" d="M 319 -1131 
L 319 4513 
L 3519 4513 
L 3519 -1131 
L 319 -1131 
z
M 678 -775 
L 3163 -775 
L 3163 4153 
L 678 4153 
L 678 -775 
z
" transform="scale(0.015625)"/>
      <path id="DejaVuSans-8c37" d="M 319 -1131 
L 319 4513 
L 3519 4513 
L 3519 -1131 
L 319 -1131 
z
M 678 -775 
L 3163 -775 
L 3163 4153 
L 678 4153 
L 678 -775 
z
" transform="scale(0.015625)"/>
      <path id="DejaVuSans-6a4b" d="M 319 -1131 
L 319 4513 
L 3519 4513 
L 3519 -1131 
L 319 -1131 
z
M 678 -775 
L 3163 -775 
L 3163 4153 
L 678 4153 
L 678 -775 
z
" transform="scale(0.015625)"/>
     </defs>
     <use xlink:href="#DejaVuSans-672c"/>
     <use xlink:href="#DejaVuSans-8c37" x="60.009766"/>
     <use xlink:href="#DejaVuSans-6a4b" x="120.019531"/>
    </g>
   </g>
   <g id="text_21">
    <!-- 涸沢ヒュッテ -->
    <g transform="translate(646.881537 121.377915) scale(0.08 -0.08)">
     <defs>
      <path id="DejaVuSans-6db8" d="M 319 -1131 
L 319 4513 
L 3519 4513 
L 3519 -1131 
L 319 -1131 
z
M 678 -775 
L 3163 -775 
L 3163 4153 
L 678 4153 
L 678 -775 
z
" transform="scale(0.015625)"/>
      <path id="DejaVuSans-30d2" d="M 319 -1131 
L 319 4513 
L 3519 4513 
L 3519 -1131 
L 319 -1131 
z
M 678 -775 
L 3163 -775 
L 3163 4153 
L 678 4153 
L 678 -775 
z
" transform="scale(0.015625)"/>
      <path id="DejaVuSans-30e5" d="M 319 -1131 
L 319 4513 
L 3519 4513 
L 3519 -1131 
L 319 -1131 
z
M 678 -775 
L 3163 -775 
L 3163 4153 
L 678 4153 
L 678 -775 
z
" transform="scale(0.015625)"/>
      <path id="DejaVuSans-30c6" d="M 319 -1131 
L 319 4513 
L 3519 4513 
L 3519 -1131 
L 319 -1131 
z
M 678 -775 
L 3163 -775 
L 3163 4153 
L 678 4153 
L 678 -775 
z
" transform="scale(0.015625)"/>
     </defs>
     <use xlink:href="#DejaVuSans-6db8"/>
     <use xlink:href="#DejaVuSans-6ca2" x="60.009766"/>
     <use xlink:href="#DejaVuSans-30d2" x="120.019531"/>
     <use xlink:href="#DejaVuSans-30e5" x="180.029297"/>
     <use xlink:href="#DejaVuSans-30c3" x="240.039062"/>
     <use xlink:href="#DejaVuSans-30c6" x="300.048828"/>
    </g>
   </g>
   <g id="text_22">
    <!-- ザイテングラード -->
    <g transform="translate(703.884183 70.143945) scale(0.08 -0.08)">
     <defs>
      <path id="DejaVuSans-30b6" d="M 319 -1131 
L 319 4513 
L 3519 4513 
L 3519 -1131 
L 319 -1131 
z
M 678 -775 
L 3163 -775 
L 3163 4153 
L 678 4153 
L 678 -775 
z
" transform="scale(0.015625)"/>
      <path id="DejaVuSans-30a4" d="M 319 -1131 
L 319 4513 
L 3519 4513 
L 3519 -1131 
L 319 -1131 
z
M 678 -775 
L 3163 -775 
L 3163 4153 
L 678 4153 
L 678 -775 
z
" transform="scale(0.015625)"/>
      <path id="DejaVuSans-30f3" d="M 319 -1131 
L 319 4513 
L 3519 4513 
L 3519 -1131 
L 319 -1131 
z
M 678 -775 
L 3163 -775 
L 3163 4153 
L 678 4153 
L 678 -775 
z
" transform="scale(0.015625)"/>
      <path id="DejaVuSans-30b0" d="M 319 -1131 
L 319 4513 
L 3519 4513 
L 3519 -1131 
L 319 -1131 
z
M 678 -775 
L 3163 -775 
L 3163 4153 
L 678 4153 
L 678 -775 
z
" transform="scale(0.015625)"/>
      <path id="DejaVuSans-30e9" d="M 319 -1131 
L 319 4513 
L 3519 4513 
L 3519 -1131 
L 319 -1131 
z
M 678 -775 
L 3163 -775 
L 3163 4153 
L 678 4153 
L 678 -775 
z
" transform="scale(0.015625)"/>
      <path id="DejaVuSans-30fc" d="M 319 -1131 
L 319 4513 
L 3519 4513 
L 3519 -1131 
L 319 -1131 
z
M 678 -775 
L 3163 -775 
L 3163 4153 
L 678 4153 
L 678 -775 
z
" transform="scale(0.015625)"/>
      <path id="DejaVuSans-30c9" d="M 319 -1131 
L 319 4513 
L 3519 4513 
L 3519 -1131 
L 319 -1131 
z
M 678 -775 
L 3163 -775 
L 3163 4153 
L 678 4153 
L 678 -775 
z
" transform="scale(0.015625)"/>
     </defs>
     <use xlink:href="#DejaVuSans-30b6"/>
     <use xlink:href="#DejaVuSans-30a4" x="60.009766"/>
     <use xlink:href="#DejaVuSans-30c6" x="120.019531"/>
     <use xlink:href="#DejaVuSans-30f3" x="180.029297"/>
     <use xlink:href="#DejaVuSans-30b0" x="240.039062"/>
     <use xlink:href="#DejaVuSans-30e9" x="300.048828"/>
     <use xlink:href="#DejaVuSans-30fc" x="360.058594"/>
     <use xlink:href="#DejaVuSans-30c9" x="420.068359"/>
    </g>
   </g>
   <g id="text_23">
    <!-- 奥穂高岳山頂 -->
    <g transform="translate(797.957727 30.181449) scale(0.08 -0.08)">
     <defs>
      <path id="DejaVuSans-5965" d="M 319 -1131 
L 319 4513 
L 3519 4513 
L 3519 -1131 
L 319 -1131 
z
M 678 -775 
L 3163 -775 
L 3163 4153 
L 678 4153 
L 678 -775 
z
" transform="scale(0.015625)"/>
      <path id="DejaVuSans-7a42" d="M 319 -1131 
L 319 4513 
L 3519 4513 
L 3519 -1131 
L 319 -1131 
z
M 678 -775 
L 3163 -775 
L 3163 4153 
L 678 4153 
L 678 -775 
z
" transform="scale(0.015625)"/>
      <path id="DejaVuSans-5cb3" d="M 319 -1131 
L 319 4513 
L 3519 4513 
L 3519 -1131 
L 319 -1131 
z
M 678 -775 
L 3163 -775 
L 3163 4153 
L 678 4153 
L 678 -775 
z
" transform="scale(0.015625)"/>
      <path id="DejaVuSans-9802" d="M 319 -1131 
L 319 4513 
L 3519 4513 
L 3519 -1131 
L 319 -1131 
z
M 678 -775 
L 3163 -775 
L 3163 4153 
L 678 4153 
L 678 -775 
z
" transform="scale(0.015625)"/>
     </defs>
     <use xlink:href="#DejaVuSans-5965"/>
     <use xlink:href="#DejaVuSans-7a42" x="60.009766"/>
     <use xlink:href="#DejaVuSans-9ad8" x="120.019531"/>
     <use xlink:href="#DejaVuSans-5cb3" x="180.029297"/>
     <use xlink:href="#DejaVuSans-5c71" x="240.039062"/>
     <use xlink:href="#DejaVuSans-9802" x="300.048828"/>
    </g>
   </g>
   <g id="text_24">
    <g id="patch_7">
     <path d="M 71.12675 43.707137 
L 309.792375 43.707137 
Q 312.792375 43.707137 312.792375 40.707137 
L 312.792375 31.029012 
Q 312.792375 28.029012 309.792375 28.029012 
L 71.12675 28.029012 
Q 68.12675 28.029012 68.12675 31.029012 
L 68.12675 40.707137 
Q 68.12675 43.707137 71.12675 43.707137 
z
" style="fill: #f5deb3; opacity: 0.8; stroke: #000000; stroke-linejoin: miter"/>
    </g>
    <!-- Total Distance: 10.5km\nElevation Gain: 1580m -->
    <g transform="translate(71.12675 38.62745) scale(0.1 -0.1)">
     <defs>
      <path id="DejaVuSans-3a" d="M 750 794 
L 1409 794 
L 1409 0 
L 750 0 
L 750 794 
z
M 750 3309 
L 1409 3309 
L 1409 2516 
L 750 2516 
L 750 3309 
z
" transform="scale(0.015625)"/>
      <path id="DejaVuSans-2e" d="M 684 794 
L 1344 794 
L 1344 0 
L 684 0 
L 684 794 
z
" transform="scale(0.015625)"/>
      <path id="DejaVuSans-5c" d="M 531 4666 
L 2156 -594 
L 1625 -594 
L 0 4666 
L 531 4666 
z
" transform="scale(0.015625)"/>
      <path id="DejaVuSans-47" d="M 3809 666 
L 3809 1919 
L 2778 1919 
L 2778 2438 
L 4434 2438 
L 4434 434 
Q 4069 175 3628 42 
Q 3188 -91 2688 -91 
Q 1594 -91 976 548 
Q 359 1188 359 2328 
Q 359 3472 976 4111 
Q 1594 4750 2688 4750 
Q 3144 4750 3555 4637 
Q 3966 4525 4313 4306 
L 4313 3634 
Q 3963 3931 3569 4081 
Q 3175 4231 2741 4231 
Q 1884 4231 1454 3753 
Q 1025 3275 1025 2328 
Q 1025 1384 1454 906 
Q 1884 428 2741 428 
Q 3075 428 3337 486 
Q 3600 544 3809 666 
z
" transform="scale(0.015625)"/>
     </defs>
     <use xlink:href="#DejaVuSans-54"/>
     <use xlink:href="#DejaVuSans-6f" x="44.083984"/>
     <use xlink:href="#DejaVuSans-74" x="105.265625"/>
     <use xlink:href="#DejaVuSans-61" x="144.474609"/>
     <use xlink:href="#DejaVuSans-6c" x="205.753906"/>
     <use xlink:href="#DejaVuSans-20" x="233.537109"/>
     <use xlink:href="#DejaVuSans-44" x="265.324219"/>
     <use xlink:href="#DejaVuSans-69" x="342.326172"/>
     <use xlink:href="#DejaVuSans-73" x="370.109375"/>
     <use xlink:href="#DejaVuSans-74" x="422.208984"/>
     <use xlink:href="#DejaVuSans-61" x="461.417969"/>
     <use xlink:href="#DejaVuSans-6e" x="522.697266"/>
     <use xlink:href="#DejaVuSans-63" x="586.076172"/>
     <use xlink:href="#DejaVuSans-65" x="641.056641"/>
     <use xlink:href="#DejaVuSans-3a" x="702.580078"/>
     <use xlink:href="#DejaVuSans-20" x="736.271484"/>
     <use xlink:href="#DejaVuSans-31" x="768.058594"/>
     <use xlink:href="#DejaVuSans-30" x="831.681641"/>
     <use xlink:href="#DejaVuSans-2e" x="895.304688"/>
     <use xlink:href="#DejaVuSans-35" x="927.091797"/>
     <use xlink:href="#DejaVuSans-6b" x="990.714844"/>
     <use xlink:href="#DejaVuSans-6d" x="1048.625"/>
     <use xlink:href="#DejaVuSans-5c" x="1146.037109"/>
     <use xlink:href="#DejaVuSans-6e" x="1179.728516"/>
     <use xlink:href="#DejaVuSans-45" x="1243.107422"/>
     <use xlink:href="#DejaVuSans-6c" x="1306.291016"/>
     <use xlink:href="#DejaVuSans-65" x="1334.074219"/>
     <use xlink:href="#DejaVuSans-76" x="1395.597656"/>
     <use xlink:href="#DejaVuSans-61" x="1454.777344"/>
     <use xlink:href="#DejaVuSans-74" x="1516.056641"/>
     <use xlink:href="#DejaVuSans-69" x="1555.265625"/>
     <use xlink:href="#DejaVuSans-6f" x="1583.048828"/>
     <use xlink:href="#DejaVuSans-6e" x="1644.230469"/>
     <use xlink:href="#DejaVuSans-20" x="1707.609375"/>
     <use xlink:href="#DejaVuSans-47" x="1739.396484"/>
     <use xlink:href="#DejaVuSans-61" x="1816.886719"/>
     <use xlink:href="#DejaVuSans-69" x="1878.166016"/>
     <use xlink:href="#DejaVuSans-6e" x="1905.949219"/>
     <use xlink:href="#DejaVuSans-3a" x="1969.328125"/>
     <use xlink:href="#DejaVuSans-20" x="2003.019531"/>
     <use xlink:href="#DejaVuSans-31" x="2034.806641"/>
     <use xlink:href="#DejaVuSans-35" x="2098.429688"/>
     <use xlink:href="#DejaVuSans-38" x="2162.052734"/>
     <use xlink:href="#DejaVuSans-30" x="2225.675781"/>
     <use xlink:href="#DejaVuSans-6d" x="2289.298828"/>
    </g>
   </g>
   <g id="text_25">
    <!-- 奥穂高岳 - Course Profile (上高地〜涸沢経由) -->
    <g transform="translate(329.094844 17.837812) scale(0.14 -0.14)">
     <defs>
      <path id="DejaVuSans-Bold-5965" d="M 319 -1131 
L 319 4513 
L 3519 4513 
L 3519 -1131 
L 319 -1131 
z
M 678 -775 
L 3163 -775 
L 3163 4153 
L 678 4153 
L 678 -775 
z
" transform="scale(0.015625)"/>
      <path id="DejaVuSans-Bold-7a42" d="M 319 -1131 
L 319 4513 
L 3519 4513 
L 3519 -1131 
L 319 -1131 
z
M 678 -775 
L 3163 -775 
L 3163 4153 
L 678 4153 
L 678 -775 
z
" transform="scale(0.015625)"/>
      <path id="DejaVuSans-Bold-9ad8" d="M 319 -1131 
L 319 4513 
L 3519 4513 
L 3519 -1131 
L 319 -1131 
z
M 678 -775 
L 3163 -775 
L 3163 4153 
L 678 4153 
L 678 -775 
z
" transform="scale(0.015625)"/>
      <path id="DejaVuSans-Bold-5cb3" d="M 319 -1131 
L 319 4513 
L 3519 4513 
L 3519 -1131 
L 319 -1131 
z
M 678 -775 
L 3163 -775 
L 3163 4153 
L 678 4153 
L 678 -775 
z
" transform="scale(0.015625)"/>
      <path id="DejaVuSans-Bold-20" transform="scale(0.015625)"/>
      <path id="DejaVuSans-Bold-2d" d="M 347 2297 
L 2309 2297 
L 2309 1388 
L 347 1388 
L 347 2297 
z
" transform="scale(0.015625)"/>
      <path id="DejaVuSans-Bold-43" d="M 4288 256 
Q 3956 84 3597 -3 
Q 3238 -91 2847 -91 
Q 1681 -91 1000 561 
Q 319 1213 319 2328 
Q 319 3447 1000 4098 
Q 1681 4750 2847 4750 
Q 3238 4750 3597 4662 
Q 3956 4575 4288 4403 
L 4288 3438 
Q 3953 3666 3628 3772 
Q 3303 3878 2944 3878 
Q 2300 3878 1931 3465 
Q 1563 3053 1563 2328 
Q 1563 1606 1931 1193 
Q 2300 781 2944 781 
Q 3303 781 3628 887 
Q 3953 994 4288 1222 
L 4288 256 
z
" transform="scale(0.015625)"/>
      <path id="DejaVuSans-Bold-6f" d="M 2203 2784 
Q 1831 2784 1636 2517 
Q 1441 2250 1441 1747 
Q 1441 1244 1636 976 
Q 1831 709 2203 709 
Q 2569 709 2762 976 
Q 2956 1244 2956 1747 
Q 2956 2250 2762 2517 
Q 2569 2784 2203 2784 
z
M 2203 3584 
Q 3106 3584 3614 3096 
Q 4122 2609 4122 1747 
Q 4122 884 3614 396 
Q 3106 -91 2203 -91 
Q 1297 -91 786 396 
Q 275 884 275 1747 
Q 275 2609 786 3096 
Q 1297 3584 2203 3584 
z
" transform="scale(0.015625)"/>
      <path id="DejaVuSans-Bold-75" d="M 500 1363 
L 500 3500 
L 1625 3500 
L 1625 3150 
Q 1625 2866 1622 2436 
Q 1619 2006 1619 1863 
Q 1619 1441 1641 1255 
Q 1663 1069 1716 984 
Q 1784 875 1895 815 
Q 2006 756 2150 756 
Q 2500 756 2700 1025 
Q 2900 1294 2900 1772 
L 2900 3500 
L 4019 3500 
L 4019 0 
L 2900 0 
L 2900 506 
Q 2647 200 2364 54 
Q 2081 -91 1741 -91 
Q 1134 -91 817 281 
Q 500 653 500 1363 
z
" transform="scale(0.015625)"/>
      <path id="DejaVuSans-Bold-72" d="M 3138 2547 
Q 2991 2616 2845 2648 
Q 2700 2681 2553 2681 
Q 2122 2681 1889 2404 
Q 1656 2128 1656 1613 
L 1656 0 
L 538 0 
L 538 3500 
L 1656 3500 
L 1656 2925 
Q 1872 3269 2151 3426 
Q 2431 3584 2822 3584 
Q 2878 3584 2943 3579 
Q 3009 3575 3134 3559 
L 3138 2547 
z
" transform="scale(0.015625)"/>
      <path id="DejaVuSans-Bold-73" d="M 3272 3391 
L 3272 2541 
Q 2913 2691 2578 2766 
Q 2244 2841 1947 2841 
Q 1628 2841 1473 2761 
Q 1319 2681 1319 2516 
Q 1319 2381 1436 2309 
Q 1553 2238 1856 2203 
L 2053 2175 
Q 2913 2066 3209 1816 
Q 3506 1566 3506 1031 
Q 3506 472 3093 190 
Q 2681 -91 1863 -91 
Q 1516 -91 1145 -36 
Q 775 19 384 128 
L 384 978 
Q 719 816 1070 734 
Q 1422 653 1784 653 
Q 2113 653 2278 743 
Q 2444 834 2444 1013 
Q 2444 1163 2330 1236 
Q 2216 1309 1875 1350 
L 1678 1375 
Q 931 1469 631 1722 
Q 331 1975 331 2491 
Q 331 3047 712 3315 
Q 1094 3584 1881 3584 
Q 2191 3584 2531 3537 
Q 2872 3491 3272 3391 
z
" transform="scale(0.015625)"/>
      <path id="DejaVuSans-Bold-65" d="M 4031 1759 
L 4031 1441 
L 1416 1441 
Q 1456 1047 1700 850 
Q 1944 653 2381 653 
Q 2734 653 3104 758 
Q 3475 863 3866 1075 
L 3866 213 
Q 3469 63 3072 -14 
Q 2675 -91 2278 -91 
Q 1328 -91 801 392 
Q 275 875 275 1747 
Q 275 2603 792 3093 
Q 1309 3584 2216 3584 
Q 3041 3584 3536 3087 
Q 4031 2591 4031 1759 
z
M 2881 2131 
Q 2881 2450 2695 2645 
Q 2509 2841 2209 2841 
Q 1884 2841 1681 2658 
Q 1478 2475 1428 2131 
L 2881 2131 
z
" transform="scale(0.015625)"/>
      <path id="DejaVuSans-Bold-50" d="M 588 4666 
L 2584 4666 
Q 3475 4666 3951 4270 
Q 4428 3875 4428 3144 
Q 4428 2409 3951 2014 
Q 3475 1619 2584 1619 
L 1791 1619 
L 1791 0 
L 588 0 
L 588 4666 
z
M 1791 3794 
L 1791 2491 
L 2456 2491 
Q 2806 2491 2997 2661 
Q 3188 2831 3188 3144 
Q 3188 3456 2997 3625 
Q 2806 3794 2456 3794 
L 1791 3794 
z
" transform="scale(0.015625)"/>
      <path id="DejaVuSans-Bold-66" d="M 2841 4863 
L 2841 4128 
L 2222 4128 
Q 1984 4128 1890 4042 
Q 1797 3956 1797 3744 
L 1797 3500 
L 2753 3500 
L 2753 2700 
L 1797 2700 
L 1797 0 
L 678 0 
L 678 2700 
L 122 2700 
L 122 3500 
L 678 3500 
L 678 3744 
Q 678 4316 997 4589 
Q 1316 4863 1984 4863 
L 2841 4863 
z
" transform="scale(0.015625)"/>
      <path id="DejaVuSans-Bold-69" d="M 538 3500 
L 1656 3500 
L 1656 0 
L 538 0 
L 538 3500 
z
M 538 4863 
L 1656 4863 
L 1656 3950 
L 538 3950 
L 538 4863 
z
" transform="scale(0.015625)"/>
      <path id="DejaVuSans-Bold-6c" d="M 538 4863 
L 1656 4863 
L 1656 0 
L 538 0 
L 538 4863 
z
" transform="scale(0.015625)"/>
      <path id="DejaVuSans-Bold-28" d="M 2413 -844 
L 1484 -844 
Q 1006 -72 778 623 
Q 550 1319 550 2003 
Q 550 2688 779 3389 
Q 1009 4091 1484 4856 
L 2413 4856 
Q 2013 4116 1813 3408 
Q 1613 2700 1613 2009 
Q 1613 1319 1811 609 
Q 2009 -100 2413 -844 
z
" transform="scale(0.015625)"/>
      <path id="DejaVuSans-Bold-4e0a" d="M 319 -1131 
L 319 4513 
L 3519 4513 
L 3519 -1131 
L 319 -1131 
z
M 678 -775 
L 3163 -775 
L 3163 4153 
L 678 4153 
L 678 -775 
z
" transform="scale(0.015625)"/>
      <path id="DejaVuSans-Bold-5730" d="M 319 -1131 
L 319 4513 
L 3519 4513 
L 3519 -1131 
L 319 -1131 
z
M 678 -775 
L 3163 -775 
L 3163 4153 
L 678 4153 
L 678 -775 
z
" transform="scale(0.015625)"/>
      <path id="DejaVuSans-Bold-301c" d="M 319 -1131 
L 319 4513 
L 3519 4513 
L 3519 -1131 
L 319 -1131 
z
M 678 -775 
L 3163 -775 
L 3163 4153 
L 678 4153 
L 678 -775 
z
" transform="scale(0.015625)"/>
      <path id="DejaVuSans-Bold-6db8" d="M 319 -1131 
L 319 4513 
L 3519 4513 
L 3519 -1131 
L 319 -1131 
z
M 678 -775 
L 3163 -775 
L 3163 4153 
L 678 4153 
L 678 -775 
z
" transform="scale(0.015625)"/>
      <path id="DejaVuSans-Bold-6ca2" d="M 319 -1131 
L 319 4513 
L 3519 4513 
L 3519 -1131 
L 319 -1131 
z
M 678 -775 
L 3163 -775 
L 3163 4153 
L 678 4153 
L 678 -775 
z
" transform="scale(0.015625)"/>
      <path id="DejaVuSans-Bold-7d4c" d="M 319 -1131 
L 319 4513 
L 3519 4513 
L 3519 -1131 
L 319 -1131 
z
M 678 -775 
L 3163 -775 
L 3163 4153 
L 678 4153 
L 678 -775 
z
" transform="scale(0.015625)"/>
      <path id="DejaVuSans-Bold-7531" d="M 319 -1131 
L 319 4513 
L 3519 4513 
L 3519 -1131 
L 319 -1131 
z
M 678 -775 
L 3163 -775 
L 3163 4153 
L 678 4153 
L 678 -775 
z
" transform="scale(0.015625)"/>
      <path id="DejaVuSans-Bold-29" d="M 513 -844 
Q 913 -100 1113 609 
Q 1313 1319 1313 2009 
Q 1313 2700 1113 3408 
Q 913 4116 513 4856 
L 1441 4856 
Q 1916 4091 2145 3389 
Q 2375 2688 2375 2003 
Q 2375 1319 2147 623 
Q 1919 -72 1441 -844 
L 513 -844 
z
" transform="scale(0.015625)"/>
     </defs>
     <use xlink:href="#DejaVuSans-Bold-5965"/>
     <use xlink:href="#DejaVuSans-Bold-7a42" x="60.009766"/>
     <use xlink:href="#DejaVuSans-Bold-9ad8" x="120.019531"/>
     <use xlink:href="#DejaVuSans-Bold-5cb3" x="180.029297"/>
     <use xlink:href="#DejaVuSans-Bold-20" x="240.039062"/>
     <use xlink:href="#DejaVuSans-Bold-2d" x="274.853516"/>
     <use xlink:href="#DejaVuSans-Bold-20" x="316.357422"/>
     <use xlink:href="#DejaVuSans-Bold-43" x="351.171875"/>
     <use xlink:href="#DejaVuSans-Bold-6f" x="424.560547"/>
     <use xlink:href="#DejaVuSans-Bold-75" x="493.261719"/>
     <use xlink:href="#DejaVuSans-Bold-72" x="564.453125"/>
     <use xlink:href="#DejaVuSans-Bold-73" x="613.769531"/>
     <use xlink:href="#DejaVuSans-Bold-65" x="673.291016"/>
     <use xlink:href="#DejaVuSans-Bold-20" x="741.113281"/>
     <use xlink:href="#DejaVuSans-Bold-50" x="775.927734"/>
     <use xlink:href="#DejaVuSans-Bold-72" x="849.21875"/>
     <use xlink:href="#DejaVuSans-Bold-6f" x="898.535156"/>
     <use xlink:href="#DejaVuSans-Bold-66" x="967.236328"/>
     <use xlink:href="#DejaVuSans-Bold-69" x="1010.742188"/>
     <use xlink:href="#DejaVuSans-Bold-6c" x="1045.019531"/>
     <use xlink:href="#DejaVuSans-Bold-65" x="1079.296875"/>
     <use xlink:href="#DejaVuSans-Bold-20" x="1147.119141"/>
     <use xlink:href="#DejaVuSans-Bold-28" x="1181.933594"/>
     <use xlink:href="#DejaVuSans-Bold-4e0a" x="1227.636719"/>
     <use xlink:href="#DejaVuSans-Bold-9ad8" x="1287.646484"/>
     <use xlink:href="#DejaVuSans-Bold-5730" x="1347.65625"/>
     <use xlink:href="#DejaVuSans-Bold-301c" x="1407.666016"/>
     <use xlink:href="#DejaVuSans-Bold-6db8" x="1467.675781"/>
     <use xlink:href="#DejaVuSans-Bold-6ca2" x="1527.685547"/>
     <use xlink:href="#DejaVuSans-Bold-7d4c" x="1587.695312"/>
     <use xlink:href="#DejaVuSans-Bold-7531" x="1647.705078"/>
     <use xlink:href="#DejaVuSans-Bold-29" x="1707.714844"/>
    </g>
   </g>
   <g id="PathCollection_1">
    <defs>
     <path id="m5a10cebfa7" d="M 0 3.535534 
C 0.937635 3.535534 1.836992 3.163008 2.5 2.5 
C 3.163008 1.836992 3.535534 0.937635 3.535534 0 
C 3.535534 -0.937635 3.163008 -1.836992 2.5 -2.5 
C 1.836992 -3.163008 0.937635 -3.535534 0 -3.535534 
C -0.937635 -3.535534 -1.836992 -3.163008 -2.5 -2.5 
C -3.163008 -1.836992 -3.535534 -0.937635 -3.535534 0 
C -3.535534 0.937635 -3.163008 1.836992 -2.5 2.5 
C -1.836992 3.163008 -0.937635 3.535534 0 3.535534 
z
" style="stroke: #ff0000"/>
    </defs>
    <g clip-path="url(#p6f74554756)">
     <use xlink:href="#m5a10cebfa7" x="91.316023" y="212.327587" style="fill: #ff0000; stroke: #ff0000"/>
     <use xlink:href="#m5a10cebfa7" x="235.525114" y="210.278229" style="fill: #ff0000; stroke: #ff0000"/>
     <use xlink:href="#m5a10cebfa7" x="324.797408" y="207.20419" style="fill: #ff0000; stroke: #ff0000"/>
     <use xlink:href="#m5a10cebfa7" x="462.139399" y="201.056114" style="fill: #ff0000; stroke: #ff0000"/>
     <use xlink:href="#m5a10cebfa7" x="558.278793" y="177.488488" style="fill: #ff0000; stroke: #ff0000"/>
     <use xlink:href="#m5a10cebfa7" x="661.285287" y="131.377915" style="fill: #ff0000; stroke: #ff0000"/>
     <use xlink:href="#m5a10cebfa7" x="723.089183" y="80.143945" style="fill: #ff0000; stroke: #ff0000"/>
     <use xlink:href="#m5a10cebfa7" x="812.361477" y="40.181449" style="fill: #ff0000; stroke: #ff0000"/>
    </g>
   </g>
   <g id="legend_1">
    <g id="patch_8">
     <path d="M 411.8325 46.515937 
L 491.845 46.515937 
Q 493.845 46.515937 493.845 44.515937 
L 493.845 30.837812 
Q 493.845 28.837812 491.845 28.837812 
L 411.8325 28.837812 
Q 409.8325 28.837812 409.8325 30.837812 
L 409.8325 44.515937 
Q 409.8325 46.515937 411.8325 46.515937 
z
" style="fill: #ffffff; opacity: 0.8; stroke: #cccccc; stroke-linejoin: miter"/>
    </g>
    <g id="patch_9">
     <path d="M 413.8325 40.43625 
L 433.8325 40.43625 
L 433.8325 33.43625 
L 413.8325 33.43625 
z
" style="fill: #2c5aa0; fill-opacity: 0.3; stroke: #2c5aa0; stroke-opacity: 0.3; stroke-linejoin: miter"/>
    </g>
    <g id="text_26">
     <!-- 標高プロファイル -->
     <g transform="translate(441.8325 40.43625) scale(0.1 -0.1)">
      <defs>
       <path id="DejaVuSans-6a19" d="M 319 -1131 
L 319 4513 
L 3519 4513 
L 3519 -1131 
L 319 -1131 
z
M 678 -775 
L 3163 -775 
L 3163 4153 
L 678 4153 
L 678 -775 
z
" transform="scale(0.015625)"/>
       <path id="DejaVuSans-30d7" d="M 319 -1131 
L 319 4513 
L 3519 4513 
L 3519 -1131 
L 319 -1131 
z
M 678 -775 
L 3163 -775 
L 3163 4153 
L 678 4153 
L 678 -775 
z
" transform="scale(0.015625)"/>
       <path id="DejaVuSans-30d5" d="M 319 -1131 
L 319 4513 
L 3519 4513 
L 3519 -1131 
L 319 -1131 
z
M 678 -775 
L 3163 -775 
L 3163 4153 
L 678 4153 
L 678 -775 
z
" transform="scale(0.015625)"/>
       <path id="DejaVuSans-30a1" d="M 319 -1131 
L 319 4513 
L 3519 4513 
L 3519 -1131 
L 319 -1131 
z
M 678 -775 
L 3163 -775 
L 3163 4153 
L 678 4153 
L 678 -775 
z
" transform="scale(0.015625)"/>
       <path id="DejaVuSans-30eb" d="M 319 -1131 
L 319 4513 
L 3519 4513 
L 3519 -1131 
L 319 -1131 
z
M 678 -775 
L 3163 -775 
L 3163 4153 
L 678 4153 
L 678 -775 
z
" transform="scale(0.015625)"/>
      </defs>
      <use xlink:href="#DejaVuSans-6a19"/>
      <use xlink:href="#DejaVuSans-9ad8" x="60.009766"/>
      <use xlink:href="#DejaVuSans-30d7" x="120.019531"/>
      <use xlink:href="#DejaVuSans-30ed" x="180.029297"/>
      <use xlink:href="#DejaVuSans-30d5" x="240.039062"/>
      <use xlink:href="#DejaVuSans-30a1" x="300.048828"/>
      <use xlink:href="#DejaVuSans-30a4" x="360.058594"/>
      <use xlink:href="#DejaVuSans-30eb" x="420.068359"/>
     </g>
    </g>
   </g>
  </g>
 </g>
 <defs>
  <clipPath id="p6f74554756">
   <rect x="55.26375" y="23.837812" width="793.15" height="359.56"/>
  </clipPath>
 </defs>
</svg>
