<?xml version="1.0" encoding="utf-8" standalone="no"?>
<!DOCTYPE svg PUBLIC "-//W3C//DTD SVG 1.1//EN"
  "http://www.w3.org/Graphics/SVG/1.1/DTD/svg11.dtd">
<svg xmlns:xlink="http://www.w3.org/1999/xlink" width="855.61375pt" height="422.889687pt" viewBox="0 0 855.61375 422.889687" xmlns="http://www.w3.org/2000/svg" version="1.1">
 <metadata>
  <rdf:RDF xmlns:dc="http://purl.org/dc/elements/1.1/" xmlns:cc="http://creativecommons.org/ns#" xmlns:rdf="http://www.w3.org/1999/02/22-rdf-syntax-ns#">
   <cc:Work>
    <dc:type rdf:resource="http://purl.org/dc/dcmitype/StillImage"/>
    <dc:date>2025-08-29T16:53:24.395664</dc:date>
    <dc:format>image/svg+xml</dc:format>
    <dc:creator>
     <cc:Agent>
      <dc:title>Matplotlib v3.9.4, https://matplotlib.org/</dc:title>
     </cc:Agent>
    </dc:creator>
   </cc:Work>
  </rdf:RDF>
 </metadata>
 <defs>
  <style type="text/css">*{stroke-linejoin: round; stroke-linecap: butt}</style>
 </defs>
 <g id="figure_1">
  <g id="patch_1">
   <path d="M 0 422.889687 
L 855.61375 422.889687 
L 855.61375 0 
L 0 0 
z
" style="fill: #ffffff"/>
  </g>
  <g id="axes_1">
   <g id="patch_2">
    <path d="M 55.26375 383.397812 
L 848.41375 383.397812 
L 848.41375 23.837812 
L 55.26375 23.837812 
z
" style="fill: #ffffff"/>
   </g>
   <g id="PolyCollection_1">
    <defs>
     <path id="m466473afbc" d="M 91.316023 -55.835511 
L 91.316023 -211.048662 
L 98.198729 -211.183612 
L 105.081436 -211.31777 
L 111.964143 -211.450364 
L 118.846849 -211.580659 
L 125.729556 -211.70798 
L 132.612262 -211.831721 
L 139.494969 -211.951366 
L 146.377676 -212.066502 
L 153.260382 -212.176823 
L 160.143089 -212.282144 
L 167.025795 -212.382403 
L 173.908502 -212.477662 
L 180.791209 -212.568107 
L 187.673915 -212.654042 
L 194.556622 -212.735881 
L 201.439329 -212.814141 
L 208.322035 -212.889426 
L 215.204742 -212.962413 
L 222.087448 -213.033835 
L 228.970155 -213.104465 
L 228.970155 -213.104465 
L 236.716924 -213.47168 
L 244.463694 -213.831856 
L 252.210463 -214.178526 
L 259.957232 -214.506316 
L 267.704002 -214.811381 
L 275.450771 -215.091718 
L 283.19754 -215.347326 
L 290.94431 -215.58021 
L 298.691079 -215.794214 
L 306.437848 -215.994711 
L 314.184618 -216.18817 
L 314.184618 -216.18817 
L 321.084574 -216.614283 
L 327.984531 -217.037627 
L 334.884487 -217.455508 
L 341.784444 -217.865382 
L 348.6844 -218.264924 
L 355.584357 -218.652088 
L 362.484313 -219.025169 
L 369.38427 -219.382843 
L 376.284226 -219.724209 
L 383.184183 -220.04881 
L 390.084139 -220.356645 
L 396.984096 -220.648171 
L 403.884052 -220.924292 
L 410.784009 -221.186328 
L 417.683965 -221.435988 
L 424.583922 -221.675315 
L 431.483878 -221.906634 
L 438.383835 -222.132492 
L 445.283791 -222.35558 
L 445.283791 -222.35558 
L 452.434655 -225.300446 
L 459.585519 -228.231017 
L 466.736383 -231.133291 
L 473.887247 -233.993841 
L 481.038111 -236.800088 
L 488.188975 -239.540561 
L 495.339839 -242.205126 
L 502.490703 -244.785195 
L 509.641567 -247.2739 
L 516.792431 -249.666233 
L 523.943295 -251.959148 
L 531.094159 -254.151622 
L 538.245023 -256.244678 
L 545.395887 -258.241362 
L 552.546752 -260.146682 
L 559.697616 -261.967506 
L 566.84848 -263.712423 
L 573.999344 -265.391564 
L 581.150208 -267.016404 
L 588.301072 -268.599519 
L 595.451936 -270.154336 
L 602.6028 -271.69486 
L 602.6028 -271.69486 
L 610.250251 -270.581299 
L 617.897703 -269.536596 
L 625.545155 -268.611155 
L 633.192607 -267.823426 
L 640.840059 -267.154961 
L 648.48751 -266.555351 
L 648.48751 -266.555351 
L 655.916463 -275.275463 
L 663.345417 -283.904973 
L 670.77437 -292.357242 
L 678.203323 -300.553375 
L 685.632276 -308.425671 
L 693.061229 -315.920584 
L 700.490183 -323.001059 
L 707.919136 -329.648156 
L 715.348089 -335.861876 
L 722.777042 -341.661158 
L 730.205995 -347.083057 
L 737.634948 -352.181119 
L 745.063902 -357.023044 
L 752.492855 -361.687729 
L 759.921808 -366.261812 
L 759.921808 -366.261812 
L 767.413189 -369.324885 
L 774.904571 -372.246625 
L 782.395952 -374.913689 
L 789.887333 -377.263178 
L 797.378715 -379.295093 
L 804.870096 -381.072333 
L 812.361477 -382.708239 
L 812.361477 -55.835511 
L 812.361477 -55.835511 
L 804.870096 -55.835511 
L 797.378715 -55.835511 
L 789.887333 -55.835511 
L 782.395952 -55.835511 
L 774.904571 -55.835511 
L 767.413189 -55.835511 
L 759.921808 -55.835511 
L 759.921808 -55.835511 
L 752.492855 -55.835511 
L 745.063902 -55.835511 
L 737.634948 -55.835511 
L 730.205995 -55.835511 
L 722.777042 -55.835511 
L 715.348089 -55.835511 
L 707.919136 -55.835511 
L 700.490183 -55.835511 
L 693.061229 -55.835511 
L 685.632276 -55.835511 
L 678.203323 -55.835511 
L 670.77437 -55.835511 
L 663.345417 -55.835511 
L 655.916463 -55.835511 
L 648.48751 -55.835511 
L 648.48751 -55.835511 
L 640.840059 -55.835511 
L 633.192607 -55.835511 
L 625.545155 -55.835511 
L 617.897703 -55.835511 
L 610.250251 -55.835511 
L 602.6028 -55.835511 
L 602.6028 -55.835511 
L 595.451936 -55.835511 
L 588.301072 -55.835511 
L 581.150208 -55.835511 
L 573.999344 -55.835511 
L 566.84848 -55.835511 
L 559.697616 -55.835511 
L 552.546752 -55.835511 
L 545.395887 -55.835511 
L 538.245023 -55.835511 
L 531.094159 -55.835511 
L 523.943295 -55.835511 
L 516.792431 -55.835511 
L 509.641567 -55.835511 
L 502.490703 -55.835511 
L 495.339839 -55.835511 
L 488.188975 -55.835511 
L 481.038111 -55.835511 
L 473.887247 -55.835511 
L 466.736383 -55.835511 
L 459.585519 -55.835511 
L 452.434655 -55.835511 
L 445.283791 -55.835511 
L 445.283791 -55.835511 
L 438.383835 -55.835511 
L 431.483878 -55.835511 
L 424.583922 -55.835511 
L 417.683965 -55.835511 
L 410.784009 -55.835511 
L 403.884052 -55.835511 
L 396.984096 -55.835511 
L 390.084139 -55.835511 
L 383.184183 -55.835511 
L 376.284226 -55.835511 
L 369.38427 -55.835511 
L 362.484313 -55.835511 
L 355.584357 -55.835511 
L 348.6844 -55.835511 
L 341.784444 -55.835511 
L 334.884487 -55.835511 
L 327.984531 -55.835511 
L 321.084574 -55.835511 
L 314.184618 -55.835511 
L 314.184618 -55.835511 
L 306.437848 -55.835511 
L 298.691079 -55.835511 
L 290.94431 -55.835511 
L 283.19754 -55.835511 
L 275.450771 -55.835511 
L 267.704002 -55.835511 
L 259.957232 -55.835511 
L 252.210463 -55.835511 
L 244.463694 -55.835511 
L 236.716924 -55.835511 
L 228.970155 -55.835511 
L 228.970155 -55.835511 
L 222.087448 -55.835511 
L 215.204742 -55.835511 
L 208.322035 -55.835511 
L 201.439329 -55.835511 
L 194.556622 -55.835511 
L 187.673915 -55.835511 
L 180.791209 -55.835511 
L 173.908502 -55.835511 
L 167.025795 -55.835511 
L 160.143089 -55.835511 
L 153.260382 -55.835511 
L 146.377676 -55.835511 
L 139.494969 -55.835511 
L 132.612262 -55.835511 
L 125.729556 -55.835511 
L 118.846849 -55.835511 
L 111.964143 -55.835511 
L 105.081436 -55.835511 
L 98.198729 -55.835511 
L 91.316023 -55.835511 
z
" style="stroke: #2c5aa0; stroke-opacity: 0.3"/>
    </defs>
    <g clip-path="url(#p1b693f1d04)">
     <use xlink:href="#m466473afbc" x="0" y="422.889687" style="fill: #2c5aa0; fill-opacity: 0.3; stroke: #2c5aa0; stroke-opacity: 0.3"/>
    </g>
   </g>
   <g id="matplotlib.axis_1">
    <g id="xtick_1">
     <g id="line2d_1">
      <path d="M 91.316023 383.397812 
L 91.316023 23.837812 
" clip-path="url(#p1b693f1d04)" style="fill: none; stroke: #b0b0b0; stroke-opacity: 0.3; stroke-width: 0.8; stroke-linecap: square"/>
     </g>
     <g id="line2d_2">
      <defs>
       <path id="m3c07cf6f87" d="M 0 0 
L 0 3.5 
" style="stroke: #000000; stroke-width: 0.8"/>
      </defs>
      <g>
       <use xlink:href="#m3c07cf6f87" x="91.316023" y="383.397812" style="stroke: #000000; stroke-width: 0.8"/>
      </g>
     </g>
     <g id="text_1">
      <!-- 0 -->
      <g transform="translate(88.134773 397.99625) scale(0.1 -0.1)">
       <defs>
        <path id="DejaVuSans-30" d="M 2034 4250 
Q 1547 4250 1301 3770 
Q 1056 3291 1056 2328 
Q 1056 1369 1301 889 
Q 1547 409 2034 409 
Q 2525 409 2770 889 
Q 3016 1369 3016 2328 
Q 3016 3291 2770 3770 
Q 2525 4250 2034 4250 
z
M 2034 4750 
Q 2819 4750 3233 4129 
Q 3647 3509 3647 2328 
Q 3647 1150 3233 529 
Q 2819 -91 2034 -91 
Q 1250 -91 836 529 
Q 422 1150 422 2328 
Q 422 3509 836 4129 
Q 1250 4750 2034 4750 
z
" transform="scale(0.015625)"/>
       </defs>
       <use xlink:href="#DejaVuSans-30"/>
      </g>
     </g>
    </g>
    <g id="xtick_2">
     <g id="line2d_3">
      <path d="M 222.415196 383.397812 
L 222.415196 23.837812 
" clip-path="url(#p1b693f1d04)" style="fill: none; stroke: #b0b0b0; stroke-opacity: 0.3; stroke-width: 0.8; stroke-linecap: square"/>
     </g>
     <g id="line2d_4">
      <g>
       <use xlink:href="#m3c07cf6f87" x="222.415196" y="383.397812" style="stroke: #000000; stroke-width: 0.8"/>
      </g>
     </g>
     <g id="text_2">
      <!-- 2 -->
      <g transform="translate(219.233946 397.99625) scale(0.1 -0.1)">
       <defs>
        <path id="DejaVuSans-32" d="M 1228 531 
L 3431 531 
L 3431 0 
L 469 0 
L 469 531 
Q 828 903 1448 1529 
Q 2069 2156 2228 2338 
Q 2531 2678 2651 2914 
Q 2772 3150 2772 3378 
Q 2772 3750 2511 3984 
Q 2250 4219 1831 4219 
Q 1534 4219 1204 4116 
Q 875 4013 500 3803 
L 500 4441 
Q 881 4594 1212 4672 
Q 1544 4750 1819 4750 
Q 2544 4750 2975 4387 
Q 3406 4025 3406 3419 
Q 3406 3131 3298 2873 
Q 3191 2616 2906 2266 
Q 2828 2175 2409 1742 
Q 1991 1309 1228 531 
z
" transform="scale(0.015625)"/>
       </defs>
       <use xlink:href="#DejaVuSans-32"/>
      </g>
     </g>
    </g>
    <g id="xtick_3">
     <g id="line2d_5">
      <path d="M 353.51437 383.397812 
L 353.51437 23.837812 
" clip-path="url(#p1b693f1d04)" style="fill: none; stroke: #b0b0b0; stroke-opacity: 0.3; stroke-width: 0.8; stroke-linecap: square"/>
     </g>
     <g id="line2d_6">
      <g>
       <use xlink:href="#m3c07cf6f87" x="353.51437" y="383.397812" style="stroke: #000000; stroke-width: 0.8"/>
      </g>
     </g>
     <g id="text_3">
      <!-- 4 -->
      <g transform="translate(350.33312 397.99625) scale(0.1 -0.1)">
       <defs>
        <path id="DejaVuSans-34" d="M 2419 4116 
L 825 1625 
L 2419 1625 
L 2419 4116 
z
M 2253 4666 
L 3047 4666 
L 3047 1625 
L 3713 1625 
L 3713 1100 
L 3047 1100 
L 3047 0 
L 2419 0 
L 2419 1100 
L 313 1100 
L 313 1709 
L 2253 4666 
z
" transform="scale(0.015625)"/>
       </defs>
       <use xlink:href="#DejaVuSans-34"/>
      </g>
     </g>
    </g>
    <g id="xtick_4">
     <g id="line2d_7">
      <path d="M 484.613543 383.397812 
L 484.613543 23.837812 
" clip-path="url(#p1b693f1d04)" style="fill: none; stroke: #b0b0b0; stroke-opacity: 0.3; stroke-width: 0.8; stroke-linecap: square"/>
     </g>
     <g id="line2d_8">
      <g>
       <use xlink:href="#m3c07cf6f87" x="484.613543" y="383.397812" style="stroke: #000000; stroke-width: 0.8"/>
      </g>
     </g>
     <g id="text_4">
      <!-- 6 -->
      <g transform="translate(481.432293 397.99625) scale(0.1 -0.1)">
       <defs>
        <path id="DejaVuSans-36" d="M 2113 2584 
Q 1688 2584 1439 2293 
Q 1191 2003 1191 1497 
Q 1191 994 1439 701 
Q 1688 409 2113 409 
Q 2538 409 2786 701 
Q 3034 994 3034 1497 
Q 3034 2003 2786 2293 
Q 2538 2584 2113 2584 
z
M 3366 4563 
L 3366 3988 
Q 3128 4100 2886 4159 
Q 2644 4219 2406 4219 
Q 1781 4219 1451 3797 
Q 1122 3375 1075 2522 
Q 1259 2794 1537 2939 
Q 1816 3084 2150 3084 
Q 2853 3084 3261 2657 
Q 3669 2231 3669 1497 
Q 3669 778 3244 343 
Q 2819 -91 2113 -91 
Q 1303 -91 875 529 
Q 447 1150 447 2328 
Q 447 3434 972 4092 
Q 1497 4750 2381 4750 
Q 2619 4750 2861 4703 
Q 3103 4656 3366 4563 
z
" transform="scale(0.015625)"/>
       </defs>
       <use xlink:href="#DejaVuSans-36"/>
      </g>
     </g>
    </g>
    <g id="xtick_5">
     <g id="line2d_9">
      <path d="M 615.712717 383.397812 
L 615.712717 23.837812 
" clip-path="url(#p1b693f1d04)" style="fill: none; stroke: #b0b0b0; stroke-opacity: 0.3; stroke-width: 0.8; stroke-linecap: square"/>
     </g>
     <g id="line2d_10">
      <g>
       <use xlink:href="#m3c07cf6f87" x="615.712717" y="383.397812" style="stroke: #000000; stroke-width: 0.8"/>
      </g>
     </g>
     <g id="text_5">
      <!-- 8 -->
      <g transform="translate(612.531467 397.99625) scale(0.1 -0.1)">
       <defs>
        <path id="DejaVuSans-38" d="M 2034 2216 
Q 1584 2216 1326 1975 
Q 1069 1734 1069 1313 
Q 1069 891 1326 650 
Q 1584 409 2034 409 
Q 2484 409 2743 651 
Q 3003 894 3003 1313 
Q 3003 1734 2745 1975 
Q 2488 2216 2034 2216 
z
M 1403 2484 
Q 997 2584 770 2862 
Q 544 3141 544 3541 
Q 544 4100 942 4425 
Q 1341 4750 2034 4750 
Q 2731 4750 3128 4425 
Q 3525 4100 3525 3541 
Q 3525 3141 3298 2862 
Q 3072 2584 2669 2484 
Q 3125 2378 3379 2068 
Q 3634 1759 3634 1313 
Q 3634 634 3220 271 
Q 2806 -91 2034 -91 
Q 1263 -91 848 271 
Q 434 634 434 1313 
Q 434 1759 690 2068 
Q 947 2378 1403 2484 
z
M 1172 3481 
Q 1172 3119 1398 2916 
Q 1625 2713 2034 2713 
Q 2441 2713 2670 2916 
Q 2900 3119 2900 3481 
Q 2900 3844 2670 4047 
Q 2441 4250 2034 4250 
Q 1625 4250 1398 4047 
Q 1172 3844 1172 3481 
z
" transform="scale(0.015625)"/>
       </defs>
       <use xlink:href="#DejaVuSans-38"/>
      </g>
     </g>
    </g>
    <g id="xtick_6">
     <g id="line2d_11">
      <path d="M 746.81189 383.397812 
L 746.81189 23.837812 
" clip-path="url(#p1b693f1d04)" style="fill: none; stroke: #b0b0b0; stroke-opacity: 0.3; stroke-width: 0.8; stroke-linecap: square"/>
     </g>
     <g id="line2d_12">
      <g>
       <use xlink:href="#m3c07cf6f87" x="746.81189" y="383.397812" style="stroke: #000000; stroke-width: 0.8"/>
      </g>
     </g>
     <g id="text_6">
      <!-- 10 -->
      <g transform="translate(740.44939 397.99625) scale(0.1 -0.1)">
       <defs>
        <path id="DejaVuSans-31" d="M 794 531 
L 1825 531 
L 1825 4091 
L 703 3866 
L 703 4441 
L 1819 4666 
L 2450 4666 
L 2450 531 
L 3481 531 
L 3481 0 
L 794 0 
L 794 531 
z
" transform="scale(0.015625)"/>
       </defs>
       <use xlink:href="#DejaVuSans-31"/>
       <use xlink:href="#DejaVuSans-30" x="63.623047"/>
      </g>
     </g>
    </g>
    <g id="text_7">
     <!-- Distance (km) -->
     <g transform="translate(409.69625 413.194062) scale(0.12 -0.12)">
      <defs>
       <path id="DejaVuSans-44" d="M 1259 4147 
L 1259 519 
L 2022 519 
Q 2988 519 3436 956 
Q 3884 1394 3884 2338 
Q 3884 3275 3436 3711 
Q 2988 4147 2022 4147 
L 1259 4147 
z
M 628 4666 
L 1925 4666 
Q 3281 4666 3915 4102 
Q 4550 3538 4550 2338 
Q 4550 1131 3912 565 
Q 3275 0 1925 0 
L 628 0 
L 628 4666 
z
" transform="scale(0.015625)"/>
       <path id="DejaVuSans-69" d="M 603 3500 
L 1178 3500 
L 1178 0 
L 603 0 
L 603 3500 
z
M 603 4863 
L 1178 4863 
L 1178 4134 
L 603 4134 
L 603 4863 
z
" transform="scale(0.015625)"/>
       <path id="DejaVuSans-73" d="M 2834 3397 
L 2834 2853 
Q 2591 2978 2328 3040 
Q 2066 3103 1784 3103 
Q 1356 3103 1142 2972 
Q 928 2841 928 2578 
Q 928 2378 1081 2264 
Q 1234 2150 1697 2047 
L 1894 2003 
Q 2506 1872 2764 1633 
Q 3022 1394 3022 966 
Q 3022 478 2636 193 
Q 2250 -91 1575 -91 
Q 1294 -91 989 -36 
Q 684 19 347 128 
L 347 722 
Q 666 556 975 473 
Q 1284 391 1588 391 
Q 1994 391 2212 530 
Q 2431 669 2431 922 
Q 2431 1156 2273 1281 
Q 2116 1406 1581 1522 
L 1381 1569 
Q 847 1681 609 1914 
Q 372 2147 372 2553 
Q 372 3047 722 3315 
Q 1072 3584 1716 3584 
Q 2034 3584 2315 3537 
Q 2597 3491 2834 3397 
z
" transform="scale(0.015625)"/>
       <path id="DejaVuSans-74" d="M 1172 4494 
L 1172 3500 
L 2356 3500 
L 2356 3053 
L 1172 3053 
L 1172 1153 
Q 1172 725 1289 603 
Q 1406 481 1766 481 
L 2356 481 
L 2356 0 
L 1766 0 
Q 1100 0 847 248 
Q 594 497 594 1153 
L 594 3053 
L 172 3053 
L 172 3500 
L 594 3500 
L 594 4494 
L 1172 4494 
z
" transform="scale(0.015625)"/>
       <path id="DejaVuSans-61" d="M 2194 1759 
Q 1497 1759 1228 1600 
Q 959 1441 959 1056 
Q 959 750 1161 570 
Q 1363 391 1709 391 
Q 2188 391 2477 730 
Q 2766 1069 2766 1631 
L 2766 1759 
L 2194 1759 
z
M 3341 1997 
L 3341 0 
L 2766 0 
L 2766 531 
Q 2569 213 2275 61 
Q 1981 -91 1556 -91 
Q 1019 -91 701 211 
Q 384 513 384 1019 
Q 384 1609 779 1909 
Q 1175 2209 1959 2209 
L 2766 2209 
L 2766 2266 
Q 2766 2663 2505 2880 
Q 2244 3097 1772 3097 
Q 1472 3097 1187 3025 
Q 903 2953 641 2809 
L 641 3341 
Q 956 3463 1253 3523 
Q 1550 3584 1831 3584 
Q 2591 3584 2966 3190 
Q 3341 2797 3341 1997 
z
" transform="scale(0.015625)"/>
       <path id="DejaVuSans-6e" d="M 3513 2113 
L 3513 0 
L 2938 0 
L 2938 2094 
Q 2938 2591 2744 2837 
Q 2550 3084 2163 3084 
Q 1697 3084 1428 2787 
Q 1159 2491 1159 1978 
L 1159 0 
L 581 0 
L 581 3500 
L 1159 3500 
L 1159 2956 
Q 1366 3272 1645 3428 
Q 1925 3584 2291 3584 
Q 2894 3584 3203 3211 
Q 3513 2838 3513 2113 
z
" transform="scale(0.015625)"/>
       <path id="DejaVuSans-63" d="M 3122 3366 
L 3122 2828 
Q 2878 2963 2633 3030 
Q 2388 3097 2138 3097 
Q 1578 3097 1268 2742 
Q 959 2388 959 1747 
Q 959 1106 1268 751 
Q 1578 397 2138 397 
Q 2388 397 2633 464 
Q 2878 531 3122 666 
L 3122 134 
Q 2881 22 2623 -34 
Q 2366 -91 2075 -91 
Q 1284 -91 818 406 
Q 353 903 353 1747 
Q 353 2603 823 3093 
Q 1294 3584 2113 3584 
Q 2378 3584 2631 3529 
Q 2884 3475 3122 3366 
z
" transform="scale(0.015625)"/>
       <path id="DejaVuSans-65" d="M 3597 1894 
L 3597 1613 
L 953 1613 
Q 991 1019 1311 708 
Q 1631 397 2203 397 
Q 2534 397 2845 478 
Q 3156 559 3463 722 
L 3463 178 
Q 3153 47 2828 -22 
Q 2503 -91 2169 -91 
Q 1331 -91 842 396 
Q 353 884 353 1716 
Q 353 2575 817 3079 
Q 1281 3584 2069 3584 
Q 2775 3584 3186 3129 
Q 3597 2675 3597 1894 
z
M 3022 2063 
Q 3016 2534 2758 2815 
Q 2500 3097 2075 3097 
Q 1594 3097 1305 2825 
Q 1016 2553 972 2059 
L 3022 2063 
z
" transform="scale(0.015625)"/>
       <path id="DejaVuSans-20" transform="scale(0.015625)"/>
       <path id="DejaVuSans-28" d="M 1984 4856 
Q 1566 4138 1362 3434 
Q 1159 2731 1159 2009 
Q 1159 1288 1364 580 
Q 1569 -128 1984 -844 
L 1484 -844 
Q 1016 -109 783 600 
Q 550 1309 550 2009 
Q 550 2706 781 3412 
Q 1013 4119 1484 4856 
L 1984 4856 
z
" transform="scale(0.015625)"/>
       <path id="DejaVuSans-6b" d="M 581 4863 
L 1159 4863 
L 1159 1991 
L 2875 3500 
L 3609 3500 
L 1753 1863 
L 3688 0 
L 2938 0 
L 1159 1709 
L 1159 0 
L 581 0 
L 581 4863 
z
" transform="scale(0.015625)"/>
       <path id="DejaVuSans-6d" d="M 3328 2828 
Q 3544 3216 3844 3400 
Q 4144 3584 4550 3584 
Q 5097 3584 5394 3201 
Q 5691 2819 5691 2113 
L 5691 0 
L 5113 0 
L 5113 2094 
Q 5113 2597 4934 2840 
Q 4756 3084 4391 3084 
Q 3944 3084 3684 2787 
Q 3425 2491 3425 1978 
L 3425 0 
L 2847 0 
L 2847 2094 
Q 2847 2600 2669 2842 
Q 2491 3084 2119 3084 
Q 1678 3084 1418 2786 
Q 1159 2488 1159 1978 
L 1159 0 
L 581 0 
L 581 3500 
L 1159 3500 
L 1159 2956 
Q 1356 3278 1631 3431 
Q 1906 3584 2284 3584 
Q 2666 3584 2933 3390 
Q 3200 3197 3328 2828 
z
" transform="scale(0.015625)"/>
       <path id="DejaVuSans-29" d="M 513 4856 
L 1013 4856 
Q 1481 4119 1714 3412 
Q 1947 2706 1947 2009 
Q 1947 1309 1714 600 
Q 1481 -109 1013 -844 
L 513 -844 
Q 928 -128 1133 580 
Q 1338 1288 1338 2009 
Q 1338 2731 1133 3434 
Q 928 4138 513 4856 
z
" transform="scale(0.015625)"/>
      </defs>
      <use xlink:href="#DejaVuSans-44"/>
      <use xlink:href="#DejaVuSans-69" x="77.001953"/>
      <use xlink:href="#DejaVuSans-73" x="104.785156"/>
      <use xlink:href="#DejaVuSans-74" x="156.884766"/>
      <use xlink:href="#DejaVuSans-61" x="196.09375"/>
      <use xlink:href="#DejaVuSans-6e" x="257.373047"/>
      <use xlink:href="#DejaVuSans-63" x="320.751953"/>
      <use xlink:href="#DejaVuSans-65" x="375.732422"/>
      <use xlink:href="#DejaVuSans-20" x="437.255859"/>
      <use xlink:href="#DejaVuSans-28" x="469.042969"/>
      <use xlink:href="#DejaVuSans-6b" x="508.056641"/>
      <use xlink:href="#DejaVuSans-6d" x="565.966797"/>
      <use xlink:href="#DejaVuSans-29" x="663.378906"/>
     </g>
    </g>
   </g>
   <g id="matplotlib.axis_2">
    <g id="ytick_1">
     <g id="line2d_13">
      <path d="M 55.26375 367.054176 
L 848.41375 367.054176 
" clip-path="url(#p1b693f1d04)" style="fill: none; stroke: #b0b0b0; stroke-opacity: 0.3; stroke-width: 0.8; stroke-linecap: square"/>
     </g>
     <g id="line2d_14">
      <defs>
       <path id="m72b871d23f" d="M 0 0 
L -3.5 0 
" style="stroke: #000000; stroke-width: 0.8"/>
      </defs>
      <g>
       <use xlink:href="#m72b871d23f" x="55.26375" y="367.054176" style="stroke: #000000; stroke-width: 0.8"/>
      </g>
     </g>
     <g id="text_8">
      <!-- 0 -->
      <g transform="translate(41.90125 370.853395) scale(0.1 -0.1)">
       <use xlink:href="#DejaVuSans-30"/>
      </g>
     </g>
    </g>
    <g id="ytick_2">
     <g id="line2d_15">
      <path d="M 55.26375 315.659093 
L 848.41375 315.659093 
" clip-path="url(#p1b693f1d04)" style="fill: none; stroke: #b0b0b0; stroke-opacity: 0.3; stroke-width: 0.8; stroke-linecap: square"/>
     </g>
     <g id="line2d_16">
      <g>
       <use xlink:href="#m72b871d23f" x="55.26375" y="315.659093" style="stroke: #000000; stroke-width: 0.8"/>
      </g>
     </g>
     <g id="text_9">
      <!-- 500 -->
      <g transform="translate(29.17625 319.458312) scale(0.1 -0.1)">
       <defs>
        <path id="DejaVuSans-35" d="M 691 4666 
L 3169 4666 
L 3169 4134 
L 1269 4134 
L 1269 2991 
Q 1406 3038 1543 3061 
Q 1681 3084 1819 3084 
Q 2600 3084 3056 2656 
Q 3513 2228 3513 1497 
Q 3513 744 3044 326 
Q 2575 -91 1722 -91 
Q 1428 -91 1123 -41 
Q 819 9 494 109 
L 494 744 
Q 775 591 1075 516 
Q 1375 441 1709 441 
Q 2250 441 2565 725 
Q 2881 1009 2881 1497 
Q 2881 1984 2565 2268 
Q 2250 2553 1709 2553 
Q 1456 2553 1204 2497 
Q 953 2441 691 2322 
L 691 4666 
z
" transform="scale(0.015625)"/>
       </defs>
       <use xlink:href="#DejaVuSans-35"/>
       <use xlink:href="#DejaVuSans-30" x="63.623047"/>
       <use xlink:href="#DejaVuSans-30" x="127.246094"/>
      </g>
     </g>
    </g>
    <g id="ytick_3">
     <g id="line2d_17">
      <path d="M 55.26375 264.26401 
L 848.41375 264.26401 
" clip-path="url(#p1b693f1d04)" style="fill: none; stroke: #b0b0b0; stroke-opacity: 0.3; stroke-width: 0.8; stroke-linecap: square"/>
     </g>
     <g id="line2d_18">
      <g>
       <use xlink:href="#m72b871d23f" x="55.26375" y="264.26401" style="stroke: #000000; stroke-width: 0.8"/>
      </g>
     </g>
     <g id="text_10">
      <!-- 1000 -->
      <g transform="translate(22.81375 268.063229) scale(0.1 -0.1)">
       <use xlink:href="#DejaVuSans-31"/>
       <use xlink:href="#DejaVuSans-30" x="63.623047"/>
       <use xlink:href="#DejaVuSans-30" x="127.246094"/>
       <use xlink:href="#DejaVuSans-30" x="190.869141"/>
      </g>
     </g>
    </g>
    <g id="ytick_4">
     <g id="line2d_19">
      <path d="M 55.26375 212.868927 
L 848.41375 212.868927 
" clip-path="url(#p1b693f1d04)" style="fill: none; stroke: #b0b0b0; stroke-opacity: 0.3; stroke-width: 0.8; stroke-linecap: square"/>
     </g>
     <g id="line2d_20">
      <g>
       <use xlink:href="#m72b871d23f" x="55.26375" y="212.868927" style="stroke: #000000; stroke-width: 0.8"/>
      </g>
     </g>
     <g id="text_11">
      <!-- 1500 -->
      <g transform="translate(22.81375 216.668146) scale(0.1 -0.1)">
       <use xlink:href="#DejaVuSans-31"/>
       <use xlink:href="#DejaVuSans-35" x="63.623047"/>
       <use xlink:href="#DejaVuSans-30" x="127.246094"/>
       <use xlink:href="#DejaVuSans-30" x="190.869141"/>
      </g>
     </g>
    </g>
    <g id="ytick_5">
     <g id="line2d_21">
      <path d="M 55.26375 161.473845 
L 848.41375 161.473845 
" clip-path="url(#p1b693f1d04)" style="fill: none; stroke: #b0b0b0; stroke-opacity: 0.3; stroke-width: 0.8; stroke-linecap: square"/>
     </g>
     <g id="line2d_22">
      <g>
       <use xlink:href="#m72b871d23f" x="55.26375" y="161.473845" style="stroke: #000000; stroke-width: 0.8"/>
      </g>
     </g>
     <g id="text_12">
      <!-- 2000 -->
      <g transform="translate(22.81375 165.273063) scale(0.1 -0.1)">
       <use xlink:href="#DejaVuSans-32"/>
       <use xlink:href="#DejaVuSans-30" x="63.623047"/>
       <use xlink:href="#DejaVuSans-30" x="127.246094"/>
       <use xlink:href="#DejaVuSans-30" x="190.869141"/>
      </g>
     </g>
    </g>
    <g id="ytick_6">
     <g id="line2d_23">
      <path d="M 55.26375 110.078762 
L 848.41375 110.078762 
" clip-path="url(#p1b693f1d04)" style="fill: none; stroke: #b0b0b0; stroke-opacity: 0.3; stroke-width: 0.8; stroke-linecap: square"/>
     </g>
     <g id="line2d_24">
      <g>
       <use xlink:href="#m72b871d23f" x="55.26375" y="110.078762" style="stroke: #000000; stroke-width: 0.8"/>
      </g>
     </g>
     <g id="text_13">
      <!-- 2500 -->
      <g transform="translate(22.81375 113.87798) scale(0.1 -0.1)">
       <use xlink:href="#DejaVuSans-32"/>
       <use xlink:href="#DejaVuSans-35" x="63.623047"/>
       <use xlink:href="#DejaVuSans-30" x="127.246094"/>
       <use xlink:href="#DejaVuSans-30" x="190.869141"/>
      </g>
     </g>
    </g>
    <g id="ytick_7">
     <g id="line2d_25">
      <path d="M 55.26375 58.683679 
L 848.41375 58.683679 
" clip-path="url(#p1b693f1d04)" style="fill: none; stroke: #b0b0b0; stroke-opacity: 0.3; stroke-width: 0.8; stroke-linecap: square"/>
     </g>
     <g id="line2d_26">
      <g>
       <use xlink:href="#m72b871d23f" x="55.26375" y="58.683679" style="stroke: #000000; stroke-width: 0.8"/>
      </g>
     </g>
     <g id="text_14">
      <!-- 3000 -->
      <g transform="translate(22.81375 62.482897) scale(0.1 -0.1)">
       <defs>
        <path id="DejaVuSans-33" d="M 2597 2516 
Q 3050 2419 3304 2112 
Q 3559 1806 3559 1356 
Q 3559 666 3084 287 
Q 2609 -91 1734 -91 
Q 1441 -91 1130 -33 
Q 819 25 488 141 
L 488 750 
Q 750 597 1062 519 
Q 1375 441 1716 441 
Q 2309 441 2620 675 
Q 2931 909 2931 1356 
Q 2931 1769 2642 2001 
Q 2353 2234 1838 2234 
L 1294 2234 
L 1294 2753 
L 1863 2753 
Q 2328 2753 2575 2939 
Q 2822 3125 2822 3475 
Q 2822 3834 2567 4026 
Q 2313 4219 1838 4219 
Q 1578 4219 1281 4162 
Q 984 4106 628 3988 
L 628 4550 
Q 988 4650 1302 4700 
Q 1616 4750 1894 4750 
Q 2613 4750 3031 4423 
Q 3450 4097 3450 3541 
Q 3450 3153 3228 2886 
Q 3006 2619 2597 2516 
z
" transform="scale(0.015625)"/>
       </defs>
       <use xlink:href="#DejaVuSans-33"/>
       <use xlink:href="#DejaVuSans-30" x="63.623047"/>
       <use xlink:href="#DejaVuSans-30" x="127.246094"/>
       <use xlink:href="#DejaVuSans-30" x="190.869141"/>
      </g>
     </g>
    </g>
    <g id="text_15">
     <!-- Elevation (m) -->
     <g transform="translate(16.318125 243.921875) rotate(-90) scale(0.12 -0.12)">
      <defs>
       <path id="DejaVuSans-45" d="M 628 4666 
L 3578 4666 
L 3578 4134 
L 1259 4134 
L 1259 2753 
L 3481 2753 
L 3481 2222 
L 1259 2222 
L 1259 531 
L 3634 531 
L 3634 0 
L 628 0 
L 628 4666 
z
" transform="scale(0.015625)"/>
       <path id="DejaVuSans-6c" d="M 603 4863 
L 1178 4863 
L 1178 0 
L 603 0 
L 603 4863 
z
" transform="scale(0.015625)"/>
       <path id="DejaVuSans-76" d="M 191 3500 
L 800 3500 
L 1894 563 
L 2988 3500 
L 3597 3500 
L 2284 0 
L 1503 0 
L 191 3500 
z
" transform="scale(0.015625)"/>
       <path id="DejaVuSans-6f" d="M 1959 3097 
Q 1497 3097 1228 2736 
Q 959 2375 959 1747 
Q 959 1119 1226 758 
Q 1494 397 1959 397 
Q 2419 397 2687 759 
Q 2956 1122 2956 1747 
Q 2956 2369 2687 2733 
Q 2419 3097 1959 3097 
z
M 1959 3584 
Q 2709 3584 3137 3096 
Q 3566 2609 3566 1747 
Q 3566 888 3137 398 
Q 2709 -91 1959 -91 
Q 1206 -91 779 398 
Q 353 888 353 1747 
Q 353 2609 779 3096 
Q 1206 3584 1959 3584 
z
" transform="scale(0.015625)"/>
      </defs>
      <use xlink:href="#DejaVuSans-45"/>
      <use xlink:href="#DejaVuSans-6c" x="63.183594"/>
      <use xlink:href="#DejaVuSans-65" x="90.966797"/>
      <use xlink:href="#DejaVuSans-76" x="152.490234"/>
      <use xlink:href="#DejaVuSans-61" x="211.669922"/>
      <use xlink:href="#DejaVuSans-74" x="272.949219"/>
      <use xlink:href="#DejaVuSans-69" x="312.158203"/>
      <use xlink:href="#DejaVuSans-6f" x="339.941406"/>
      <use xlink:href="#DejaVuSans-6e" x="401.123047"/>
      <use xlink:href="#DejaVuSans-20" x="464.501953"/>
      <use xlink:href="#DejaVuSans-28" x="496.289062"/>
      <use xlink:href="#DejaVuSans-6d" x="535.302734"/>
      <use xlink:href="#DejaVuSans-29" x="632.714844"/>
     </g>
    </g>
   </g>
   <g id="line2d_27">
    <path d="M 91.316023 211.841026 
L 98.198729 211.706076 
L 105.081436 211.571918 
L 111.964143 211.439324 
L 118.846849 211.309028 
L 125.729556 211.181708 
L 132.612262 211.057967 
L 139.494969 210.938321 
L 146.377676 210.823186 
L 153.260382 210.712865 
L 160.143089 210.607544 
L 167.025795 210.507285 
L 173.908502 210.412025 
L 180.791209 210.32158 
L 187.673915 210.235645 
L 194.556622 210.153806 
L 201.439329 210.075546 
L 208.322035 210.000261 
L 215.204742 209.927275 
L 222.087448 209.855853 
L 228.970155 209.785222 
L 228.970155 209.785222 
L 236.716924 209.418008 
L 244.463694 209.057831 
L 252.210463 208.711161 
L 259.957232 208.383372 
L 267.704002 208.078307 
L 275.450771 207.79797 
L 283.19754 207.542361 
L 290.94431 207.309477 
L 298.691079 207.095473 
L 306.437848 206.894976 
L 314.184618 206.701517 
L 314.184618 206.701517 
L 321.084574 206.275405 
L 327.984531 205.852061 
L 334.884487 205.43418 
L 341.784444 205.024305 
L 348.6844 204.624764 
L 355.584357 204.237599 
L 362.484313 203.864519 
L 369.38427 203.506844 
L 376.284226 203.165478 
L 383.184183 202.840878 
L 390.084139 202.533043 
L 396.984096 202.241516 
L 403.884052 201.965396 
L 410.784009 201.703359 
L 417.683965 201.453699 
L 424.583922 201.214373 
L 431.483878 200.983053 
L 438.383835 200.757196 
L 445.283791 200.534108 
L 445.283791 200.534108 
L 452.434655 197.589242 
L 459.585519 194.65867 
L 466.736383 191.756396 
L 473.887247 188.895847 
L 481.038111 186.089599 
L 488.188975 183.349126 
L 495.339839 180.684562 
L 502.490703 178.104493 
L 509.641567 175.615788 
L 516.792431 173.223455 
L 523.943295 170.93054 
L 531.094159 168.738066 
L 538.245023 166.645009 
L 545.395887 164.648325 
L 552.546752 162.743005 
L 559.697616 160.922181 
L 566.84848 159.177265 
L 573.999344 157.498123 
L 581.150208 155.873284 
L 588.301072 154.290169 
L 595.451936 152.735351 
L 602.6028 151.194828 
L 602.6028 151.194828 
L 610.250251 152.308388 
L 617.897703 153.353092 
L 625.545155 154.278533 
L 633.192607 155.066261 
L 640.840059 155.734727 
L 648.48751 156.334336 
L 648.48751 156.334336 
L 655.916463 147.614225 
L 663.345417 138.984714 
L 670.77437 130.532445 
L 678.203323 122.336313 
L 685.632276 114.464016 
L 693.061229 106.969104 
L 700.490183 99.888629 
L 707.919136 93.241531 
L 715.348089 87.027812 
L 722.777042 81.22853 
L 730.205995 75.806631 
L 737.634948 70.708569 
L 745.063902 65.866643 
L 752.492855 61.201959 
L 759.921808 56.627875 
L 759.921808 56.627875 
L 767.413189 53.564802 
L 774.904571 50.643063 
L 782.395952 47.975999 
L 789.887333 45.626509 
L 797.378715 43.594594 
L 804.870096 41.817355 
L 812.361477 40.181449 
" clip-path="url(#p1b693f1d04)" style="fill: none; stroke: #2c5aa0; stroke-width: 2; stroke-linecap: square"/>
   </g>
   <g id="patch_3">
    <path d="M 55.26375 383.397812 
L 55.26375 23.837812 
" style="fill: none; stroke: #000000; stroke-width: 0.8; stroke-linejoin: miter; stroke-linecap: square"/>
   </g>
   <g id="patch_4">
    <path d="M 848.41375 383.397812 
L 848.41375 23.837812 
" style="fill: none; stroke: #000000; stroke-width: 0.8; stroke-linejoin: miter; stroke-linecap: square"/>
   </g>
   <g id="patch_5">
    <path d="M 55.26375 383.397812 
L 848.41375 383.397812 
" style="fill: none; stroke: #000000; stroke-width: 0.8; stroke-linejoin: miter; stroke-linecap: square"/>
   </g>
   <g id="patch_6">
    <path d="M 55.26375 23.837812 
L 848.41375 23.837812 
" style="fill: none; stroke: #000000; stroke-width: 0.8; stroke-linejoin: miter; stroke-linecap: square"/>
   </g>
   <g id="text_16">
    <!-- 上高地BT -->
    <g transform="translate(78.926648 201.841026) scale(0.08 -0.08)">
     <defs>
      <path id="DejaVuSans-4e0a" d="M 319 -1131 
L 319 4513 
L 3519 4513 
L 3519 -1131 
L 319 -1131 
z
M 678 -775 
L 3163 -775 
L 3163 4153 
L 678 4153 
L 678 -775 
z
" transform="scale(0.015625)"/>
      <path id="DejaVuSans-9ad8" d="M 319 -1131 
L 319 4513 
L 3519 4513 
L 3519 -1131 
L 319 -1131 
z
M 678 -775 
L 3163 -775 
L 3163 4153 
L 678 4153 
L 678 -775 
z
" transform="scale(0.015625)"/>
      <path id="DejaVuSans-5730" d="M 319 -1131 
L 319 4513 
L 3519 4513 
L 3519 -1131 
L 319 -1131 
z
M 678 -775 
L 3163 -775 
L 3163 4153 
L 678 4153 
L 678 -775 
z
" transform="scale(0.015625)"/>
      <path id="DejaVuSans-42" d="M 1259 2228 
L 1259 519 
L 2272 519 
Q 2781 519 3026 730 
Q 3272 941 3272 1375 
Q 3272 1813 3026 2020 
Q 2781 2228 2272 2228 
L 1259 2228 
z
M 1259 4147 
L 1259 2741 
L 2194 2741 
Q 2656 2741 2882 2914 
Q 3109 3088 3109 3444 
Q 3109 3797 2882 3972 
Q 2656 4147 2194 4147 
L 1259 4147 
z
M 628 4666 
L 2241 4666 
Q 2963 4666 3353 4366 
Q 3744 4066 3744 3513 
Q 3744 3084 3544 2831 
Q 3344 2578 2956 2516 
Q 3422 2416 3680 2098 
Q 3938 1781 3938 1306 
Q 3938 681 3513 340 
Q 3088 0 2303 0 
L 628 0 
L 628 4666 
z
" transform="scale(0.015625)"/>
      <path id="DejaVuSans-54" d="M -19 4666 
L 3928 4666 
L 3928 4134 
L 2272 4134 
L 2272 0 
L 1638 0 
L 1638 4134 
L -19 4134 
L -19 4666 
z
" transform="scale(0.015625)"/>
     </defs>
     <use xlink:href="#DejaVuSans-4e0a"/>
     <use xlink:href="#DejaVuSans-9ad8" x="60.009766"/>
     <use xlink:href="#DejaVuSans-5730" x="120.019531"/>
     <use xlink:href="#DejaVuSans-42" x="180.029297"/>
     <use xlink:href="#DejaVuSans-54" x="248.632812"/>
    </g>
   </g>
   <g id="text_17">
    <!-- 明神池 -->
    <g transform="translate(221.76828 199.785222) scale(0.08 -0.08)">
     <defs>
      <path id="DejaVuSans-660e" d="M 319 -1131 
L 319 4513 
L 3519 4513 
L 3519 -1131 
L 319 -1131 
z
M 678 -775 
L 3163 -775 
L 3163 4153 
L 678 4153 
L 678 -775 
z
" transform="scale(0.015625)"/>
      <path id="DejaVuSans-795e" d="M 319 -1131 
L 319 4513 
L 3519 4513 
L 3519 -1131 
L 319 -1131 
z
M 678 -775 
L 3163 -775 
L 3163 4153 
L 678 4153 
L 678 -775 
z
" transform="scale(0.015625)"/>
      <path id="DejaVuSans-6c60" d="M 319 -1131 
L 319 4513 
L 3519 4513 
L 3519 -1131 
L 319 -1131 
z
M 678 -775 
L 3163 -775 
L 3163 4153 
L 678 4153 
L 678 -775 
z
" transform="scale(0.015625)"/>
     </defs>
     <use xlink:href="#DejaVuSans-660e"/>
     <use xlink:href="#DejaVuSans-795e" x="60.009766"/>
     <use xlink:href="#DejaVuSans-6c60" x="120.019531"/>
    </g>
   </g>
   <g id="text_18">
    <!-- 徳沢ロッヂ -->
    <g transform="translate(302.181493 196.701517) scale(0.08 -0.08)">
     <defs>
      <path id="DejaVuSans-5fb3" d="M 319 -1131 
L 319 4513 
L 3519 4513 
L 3519 -1131 
L 319 -1131 
z
M 678 -775 
L 3163 -775 
L 3163 4153 
L 678 4153 
L 678 -775 
z
" transform="scale(0.015625)"/>
      <path id="DejaVuSans-6ca2" d="M 319 -1131 
L 319 4513 
L 3519 4513 
L 3519 -1131 
L 319 -1131 
z
M 678 -775 
L 3163 -775 
L 3163 4153 
L 678 4153 
L 678 -775 
z
" transform="scale(0.015625)"/>
      <path id="DejaVuSans-30ed" d="M 319 -1131 
L 319 4513 
L 3519 4513 
L 3519 -1131 
L 319 -1131 
z
M 678 -775 
L 3163 -775 
L 3163 4153 
L 678 4153 
L 678 -775 
z
" transform="scale(0.015625)"/>
      <path id="DejaVuSans-30c3" d="M 319 -1131 
L 319 4513 
L 3519 4513 
L 3519 -1131 
L 319 -1131 
z
M 678 -775 
L 3163 -775 
L 3163 4153 
L 678 4153 
L 678 -775 
z
" transform="scale(0.015625)"/>
      <path id="DejaVuSans-30c2" d="M 319 -1131 
L 319 4513 
L 3519 4513 
L 3519 -1131 
L 319 -1131 
z
M 678 -775 
L 3163 -775 
L 3163 4153 
L 678 4153 
L 678 -775 
z
" transform="scale(0.015625)"/>
     </defs>
     <use xlink:href="#DejaVuSans-5fb3"/>
     <use xlink:href="#DejaVuSans-6ca2" x="60.009766"/>
     <use xlink:href="#DejaVuSans-30ed" x="120.019531"/>
     <use xlink:href="#DejaVuSans-30c3" x="180.029297"/>
     <use xlink:href="#DejaVuSans-30c2" x="240.039062"/>
    </g>
   </g>
   <g id="text_19">
    <!-- 横尾山荘 -->
    <g transform="translate(435.681291 190.534108) scale(0.08 -0.08)">
     <defs>
      <path id="DejaVuSans-6a2a" d="M 319 -1131 
L 319 4513 
L 3519 4513 
L 3519 -1131 
L 319 -1131 
z
M 678 -775 
L 3163 -775 
L 3163 4153 
L 678 4153 
L 678 -775 
z
" transform="scale(0.015625)"/>
      <path id="DejaVuSans-5c3e" d="M 319 -1131 
L 319 4513 
L 3519 4513 
L 3519 -1131 
L 319 -1131 
z
M 678 -775 
L 3163 -775 
L 3163 4153 
L 678 4153 
L 678 -775 
z
" transform="scale(0.015625)"/>
      <path id="DejaVuSans-5c71" d="M 319 -1131 
L 319 4513 
L 3519 4513 
L 3519 -1131 
L 319 -1131 
z
M 678 -775 
L 3163 -775 
L 3163 4153 
L 678 4153 
L 678 -775 
z
" transform="scale(0.015625)"/>
      <path id="DejaVuSans-8358" d="M 319 -1131 
L 319 4513 
L 3519 4513 
L 3519 -1131 
L 319 -1131 
z
M 678 -775 
L 3163 -775 
L 3163 4153 
L 678 4153 
L 678 -775 
z
" transform="scale(0.015625)"/>
     </defs>
     <use xlink:href="#DejaVuSans-6a2a"/>
     <use xlink:href="#DejaVuSans-5c3e" x="60.009766"/>
     <use xlink:href="#DejaVuSans-5c71" x="120.019531"/>
     <use xlink:href="#DejaVuSans-8358" x="180.029297"/>
    </g>
   </g>
   <g id="text_20">
    <!-- 槍沢ロッヂ -->
    <g transform="translate(590.599675 141.194828) scale(0.08 -0.08)">
     <defs>
      <path id="DejaVuSans-69cd" d="M 319 -1131 
L 319 4513 
L 3519 4513 
L 3519 -1131 
L 319 -1131 
z
M 678 -775 
L 3163 -775 
L 3163 4153 
L 678 4153 
L 678 -775 
z
" transform="scale(0.015625)"/>
     </defs>
     <use xlink:href="#DejaVuSans-69cd"/>
     <use xlink:href="#DejaVuSans-6ca2" x="60.009766"/>
     <use xlink:href="#DejaVuSans-30ed" x="120.019531"/>
     <use xlink:href="#DejaVuSans-30c3" x="180.029297"/>
     <use xlink:href="#DejaVuSans-30c2" x="240.039062"/>
    </g>
   </g>
   <g id="text_21">
    <!-- 大曲 -->
    <g transform="translate(643.68626 146.334336) scale(0.08 -0.08)">
     <defs>
      <path id="DejaVuSans-5927" d="M 319 -1131 
L 319 4513 
L 3519 4513 
L 3519 -1131 
L 319 -1131 
z
M 678 -775 
L 3163 -775 
L 3163 4153 
L 678 4153 
L 678 -775 
z
" transform="scale(0.015625)"/>
      <path id="DejaVuSans-66f2" d="M 319 -1131 
L 319 4513 
L 3519 4513 
L 3519 -1131 
L 319 -1131 
z
M 678 -775 
L 3163 -775 
L 3163 4153 
L 678 4153 
L 678 -775 
z
" transform="scale(0.015625)"/>
     </defs>
     <use xlink:href="#DejaVuSans-5927"/>
     <use xlink:href="#DejaVuSans-66f2" x="60.009766"/>
    </g>
   </g>
   <g id="text_22">
    <!-- 槍ヶ岳山荘 -->
    <g transform="translate(747.918683 46.627875) scale(0.08 -0.08)">
     <defs>
      <path id="DejaVuSans-30f6" d="M 319 -1131 
L 319 4513 
L 3519 4513 
L 3519 -1131 
L 319 -1131 
z
M 678 -775 
L 3163 -775 
L 3163 4153 
L 678 4153 
L 678 -775 
z
" transform="scale(0.015625)"/>
      <path id="DejaVuSans-5cb3" d="M 319 -1131 
L 319 4513 
L 3519 4513 
L 3519 -1131 
L 319 -1131 
z
M 678 -775 
L 3163 -775 
L 3163 4153 
L 678 4153 
L 678 -775 
z
" transform="scale(0.015625)"/>
     </defs>
     <use xlink:href="#DejaVuSans-69cd"/>
     <use xlink:href="#DejaVuSans-30f6" x="60.009766"/>
     <use xlink:href="#DejaVuSans-5cb3" x="120.019531"/>
     <use xlink:href="#DejaVuSans-5c71" x="180.029297"/>
     <use xlink:href="#DejaVuSans-8358" x="240.039062"/>
    </g>
   </g>
   <g id="text_23">
    <!-- 槍ヶ岳山頂 -->
    <g transform="translate(800.358352 30.181449) scale(0.08 -0.08)">
     <defs>
      <path id="DejaVuSans-9802" d="M 319 -1131 
L 319 4513 
L 3519 4513 
L 3519 -1131 
L 319 -1131 
z
M 678 -775 
L 3163 -775 
L 3163 4153 
L 678 4153 
L 678 -775 
z
" transform="scale(0.015625)"/>
     </defs>
     <use xlink:href="#DejaVuSans-69cd"/>
     <use xlink:href="#DejaVuSans-30f6" x="60.009766"/>
     <use xlink:href="#DejaVuSans-5cb3" x="120.019531"/>
     <use xlink:href="#DejaVuSans-5c71" x="180.029297"/>
     <use xlink:href="#DejaVuSans-9802" x="240.039062"/>
    </g>
   </g>
   <g id="text_24">
    <g id="patch_7">
     <path d="M 71.12675 43.707137 
L 309.792375 43.707137 
Q 312.792375 43.707137 312.792375 40.707137 
L 312.792375 31.029012 
Q 312.792375 28.029012 309.792375 28.029012 
L 71.12675 28.029012 
Q 68.12675 28.029012 68.12675 31.029012 
L 68.12675 40.707137 
Q 68.12675 43.707137 71.12675 43.707137 
z
" style="fill: #f5deb3; opacity: 0.8; stroke: #000000; stroke-linejoin: miter"/>
    </g>
    <!-- Total Distance: 11.0km\nElevation Gain: 1670m -->
    <g transform="translate(71.12675 38.62745) scale(0.1 -0.1)">
     <defs>
      <path id="DejaVuSans-3a" d="M 750 794 
L 1409 794 
L 1409 0 
L 750 0 
L 750 794 
z
M 750 3309 
L 1409 3309 
L 1409 2516 
L 750 2516 
L 750 3309 
z
" transform="scale(0.015625)"/>
      <path id="DejaVuSans-2e" d="M 684 794 
L 1344 794 
L 1344 0 
L 684 0 
L 684 794 
z
" transform="scale(0.015625)"/>
      <path id="DejaVuSans-5c" d="M 531 4666 
L 2156 -594 
L 1625 -594 
L 0 4666 
L 531 4666 
z
" transform="scale(0.015625)"/>
      <path id="DejaVuSans-47" d="M 3809 666 
L 3809 1919 
L 2778 1919 
L 2778 2438 
L 4434 2438 
L 4434 434 
Q 4069 175 3628 42 
Q 3188 -91 2688 -91 
Q 1594 -91 976 548 
Q 359 1188 359 2328 
Q 359 3472 976 4111 
Q 1594 4750 2688 4750 
Q 3144 4750 3555 4637 
Q 3966 4525 4313 4306 
L 4313 3634 
Q 3963 3931 3569 4081 
Q 3175 4231 2741 4231 
Q 1884 4231 1454 3753 
Q 1025 3275 1025 2328 
Q 1025 1384 1454 906 
Q 1884 428 2741 428 
Q 3075 428 3337 486 
Q 3600 544 3809 666 
z
" transform="scale(0.015625)"/>
      <path id="DejaVuSans-37" d="M 525 4666 
L 3525 4666 
L 3525 4397 
L 1831 0 
L 1172 0 
L 2766 4134 
L 525 4134 
L 525 4666 
z
" transform="scale(0.015625)"/>
     </defs>
     <use xlink:href="#DejaVuSans-54"/>
     <use xlink:href="#DejaVuSans-6f" x="44.083984"/>
     <use xlink:href="#DejaVuSans-74" x="105.265625"/>
     <use xlink:href="#DejaVuSans-61" x="144.474609"/>
     <use xlink:href="#DejaVuSans-6c" x="205.753906"/>
     <use xlink:href="#DejaVuSans-20" x="233.537109"/>
     <use xlink:href="#DejaVuSans-44" x="265.324219"/>
     <use xlink:href="#DejaVuSans-69" x="342.326172"/>
     <use xlink:href="#DejaVuSans-73" x="370.109375"/>
     <use xlink:href="#DejaVuSans-74" x="422.208984"/>
     <use xlink:href="#DejaVuSans-61" x="461.417969"/>
     <use xlink:href="#DejaVuSans-6e" x="522.697266"/>
     <use xlink:href="#DejaVuSans-63" x="586.076172"/>
     <use xlink:href="#DejaVuSans-65" x="641.056641"/>
     <use xlink:href="#DejaVuSans-3a" x="702.580078"/>
     <use xlink:href="#DejaVuSans-20" x="736.271484"/>
     <use xlink:href="#DejaVuSans-31" x="768.058594"/>
     <use xlink:href="#DejaVuSans-31" x="831.681641"/>
     <use xlink:href="#DejaVuSans-2e" x="895.304688"/>
     <use xlink:href="#DejaVuSans-30" x="927.091797"/>
     <use xlink:href="#DejaVuSans-6b" x="990.714844"/>
     <use xlink:href="#DejaVuSans-6d" x="1048.625"/>
     <use xlink:href="#DejaVuSans-5c" x="1146.037109"/>
     <use xlink:href="#DejaVuSans-6e" x="1179.728516"/>
     <use xlink:href="#DejaVuSans-45" x="1243.107422"/>
     <use xlink:href="#DejaVuSans-6c" x="1306.291016"/>
     <use xlink:href="#DejaVuSans-65" x="1334.074219"/>
     <use xlink:href="#DejaVuSans-76" x="1395.597656"/>
     <use xlink:href="#DejaVuSans-61" x="1454.777344"/>
     <use xlink:href="#DejaVuSans-74" x="1516.056641"/>
     <use xlink:href="#DejaVuSans-69" x="1555.265625"/>
     <use xlink:href="#DejaVuSans-6f" x="1583.048828"/>
     <use xlink:href="#DejaVuSans-6e" x="1644.230469"/>
     <use xlink:href="#DejaVuSans-20" x="1707.609375"/>
     <use xlink:href="#DejaVuSans-47" x="1739.396484"/>
     <use xlink:href="#DejaVuSans-61" x="1816.886719"/>
     <use xlink:href="#DejaVuSans-69" x="1878.166016"/>
     <use xlink:href="#DejaVuSans-6e" x="1905.949219"/>
     <use xlink:href="#DejaVuSans-3a" x="1969.328125"/>
     <use xlink:href="#DejaVuSans-20" x="2003.019531"/>
     <use xlink:href="#DejaVuSans-31" x="2034.806641"/>
     <use xlink:href="#DejaVuSans-36" x="2098.429688"/>
     <use xlink:href="#DejaVuSans-37" x="2162.052734"/>
     <use xlink:href="#DejaVuSans-30" x="2225.675781"/>
     <use xlink:href="#DejaVuSans-6d" x="2289.298828"/>
    </g>
   </g>
   <g id="text_25">
    <!-- 槍ヶ岳 - Course Profile (上高地〜槍沢経由) -->
    <g transform="translate(333.295938 17.837812) scale(0.14 -0.14)">
     <defs>
      <path id="DejaVuSans-Bold-69cd" d="M 319 -1131 
L 319 4513 
L 3519 4513 
L 3519 -1131 
L 319 -1131 
z
M 678 -775 
L 3163 -775 
L 3163 4153 
L 678 4153 
L 678 -775 
z
" transform="scale(0.015625)"/>
      <path id="DejaVuSans-Bold-30f6" d="M 319 -1131 
L 319 4513 
L 3519 4513 
L 3519 -1131 
L 319 -1131 
z
M 678 -775 
L 3163 -775 
L 3163 4153 
L 678 4153 
L 678 -775 
z
" transform="scale(0.015625)"/>
      <path id="DejaVuSans-Bold-5cb3" d="M 319 -1131 
L 319 4513 
L 3519 4513 
L 3519 -1131 
L 319 -1131 
z
M 678 -775 
L 3163 -775 
L 3163 4153 
L 678 4153 
L 678 -775 
z
" transform="scale(0.015625)"/>
      <path id="DejaVuSans-Bold-20" transform="scale(0.015625)"/>
      <path id="DejaVuSans-Bold-2d" d="M 347 2297 
L 2309 2297 
L 2309 1388 
L 347 1388 
L 347 2297 
z
" transform="scale(0.015625)"/>
      <path id="DejaVuSans-Bold-43" d="M 4288 256 
Q 3956 84 3597 -3 
Q 3238 -91 2847 -91 
Q 1681 -91 1000 561 
Q 319 1213 319 2328 
Q 319 3447 1000 4098 
Q 1681 4750 2847 4750 
Q 3238 4750 3597 4662 
Q 3956 4575 4288 4403 
L 4288 3438 
Q 3953 3666 3628 3772 
Q 3303 3878 2944 3878 
Q 2300 3878 1931 3465 
Q 1563 3053 1563 2328 
Q 1563 1606 1931 1193 
Q 2300 781 2944 781 
Q 3303 781 3628 887 
Q 3953 994 4288 1222 
L 4288 256 
z
" transform="scale(0.015625)"/>
      <path id="DejaVuSans-Bold-6f" d="M 2203 2784 
Q 1831 2784 1636 2517 
Q 1441 2250 1441 1747 
Q 1441 1244 1636 976 
Q 1831 709 2203 709 
Q 2569 709 2762 976 
Q 2956 1244 2956 1747 
Q 2956 2250 2762 2517 
Q 2569 2784 2203 2784 
z
M 2203 3584 
Q 3106 3584 3614 3096 
Q 4122 2609 4122 1747 
Q 4122 884 3614 396 
Q 3106 -91 2203 -91 
Q 1297 -91 786 396 
Q 275 884 275 1747 
Q 275 2609 786 3096 
Q 1297 3584 2203 3584 
z
" transform="scale(0.015625)"/>
      <path id="DejaVuSans-Bold-75" d="M 500 1363 
L 500 3500 
L 1625 3500 
L 1625 3150 
Q 1625 2866 1622 2436 
Q 1619 2006 1619 1863 
Q 1619 1441 1641 1255 
Q 1663 1069 1716 984 
Q 1784 875 1895 815 
Q 2006 756 2150 756 
Q 2500 756 2700 1025 
Q 2900 1294 2900 1772 
L 2900 3500 
L 4019 3500 
L 4019 0 
L 2900 0 
L 2900 506 
Q 2647 200 2364 54 
Q 2081 -91 1741 -91 
Q 1134 -91 817 281 
Q 500 653 500 1363 
z
" transform="scale(0.015625)"/>
      <path id="DejaVuSans-Bold-72" d="M 3138 2547 
Q 2991 2616 2845 2648 
Q 2700 2681 2553 2681 
Q 2122 2681 1889 2404 
Q 1656 2128 1656 1613 
L 1656 0 
L 538 0 
L 538 3500 
L 1656 3500 
L 1656 2925 
Q 1872 3269 2151 3426 
Q 2431 3584 2822 3584 
Q 2878 3584 2943 3579 
Q 3009 3575 3134 3559 
L 3138 2547 
z
" transform="scale(0.015625)"/>
      <path id="DejaVuSans-Bold-73" d="M 3272 3391 
L 3272 2541 
Q 2913 2691 2578 2766 
Q 2244 2841 1947 2841 
Q 1628 2841 1473 2761 
Q 1319 2681 1319 2516 
Q 1319 2381 1436 2309 
Q 1553 2238 1856 2203 
L 2053 2175 
Q 2913 2066 3209 1816 
Q 3506 1566 3506 1031 
Q 3506 472 3093 190 
Q 2681 -91 1863 -91 
Q 1516 -91 1145 -36 
Q 775 19 384 128 
L 384 978 
Q 719 816 1070 734 
Q 1422 653 1784 653 
Q 2113 653 2278 743 
Q 2444 834 2444 1013 
Q 2444 1163 2330 1236 
Q 2216 1309 1875 1350 
L 1678 1375 
Q 931 1469 631 1722 
Q 331 1975 331 2491 
Q 331 3047 712 3315 
Q 1094 3584 1881 3584 
Q 2191 3584 2531 3537 
Q 2872 3491 3272 3391 
z
" transform="scale(0.015625)"/>
      <path id="DejaVuSans-Bold-65" d="M 4031 1759 
L 4031 1441 
L 1416 1441 
Q 1456 1047 1700 850 
Q 1944 653 2381 653 
Q 2734 653 3104 758 
Q 3475 863 3866 1075 
L 3866 213 
Q 3469 63 3072 -14 
Q 2675 -91 2278 -91 
Q 1328 -91 801 392 
Q 275 875 275 1747 
Q 275 2603 792 3093 
Q 1309 3584 2216 3584 
Q 3041 3584 3536 3087 
Q 4031 2591 4031 1759 
z
M 2881 2131 
Q 2881 2450 2695 2645 
Q 2509 2841 2209 2841 
Q 1884 2841 1681 2658 
Q 1478 2475 1428 2131 
L 2881 2131 
z
" transform="scale(0.015625)"/>
      <path id="DejaVuSans-Bold-50" d="M 588 4666 
L 2584 4666 
Q 3475 4666 3951 4270 
Q 4428 3875 4428 3144 
Q 4428 2409 3951 2014 
Q 3475 1619 2584 1619 
L 1791 1619 
L 1791 0 
L 588 0 
L 588 4666 
z
M 1791 3794 
L 1791 2491 
L 2456 2491 
Q 2806 2491 2997 2661 
Q 3188 2831 3188 3144 
Q 3188 3456 2997 3625 
Q 2806 3794 2456 3794 
L 1791 3794 
z
" transform="scale(0.015625)"/>
      <path id="DejaVuSans-Bold-66" d="M 2841 4863 
L 2841 4128 
L 2222 4128 
Q 1984 4128 1890 4042 
Q 1797 3956 1797 3744 
L 1797 3500 
L 2753 3500 
L 2753 2700 
L 1797 2700 
L 1797 0 
L 678 0 
L 678 2700 
L 122 2700 
L 122 3500 
L 678 3500 
L 678 3744 
Q 678 4316 997 4589 
Q 1316 4863 1984 4863 
L 2841 4863 
z
" transform="scale(0.015625)"/>
      <path id="DejaVuSans-Bold-69" d="M 538 3500 
L 1656 3500 
L 1656 0 
L 538 0 
L 538 3500 
z
M 538 4863 
L 1656 4863 
L 1656 3950 
L 538 3950 
L 538 4863 
z
" transform="scale(0.015625)"/>
      <path id="DejaVuSans-Bold-6c" d="M 538 4863 
L 1656 4863 
L 1656 0 
L 538 0 
L 538 4863 
z
" transform="scale(0.015625)"/>
      <path id="DejaVuSans-Bold-28" d="M 2413 -844 
L 1484 -844 
Q 1006 -72 778 623 
Q 550 1319 550 2003 
Q 550 2688 779 3389 
Q 1009 4091 1484 4856 
L 2413 4856 
Q 2013 4116 1813 3408 
Q 1613 2700 1613 2009 
Q 1613 1319 1811 609 
Q 2009 -100 2413 -844 
z
" transform="scale(0.015625)"/>
      <path id="DejaVuSans-Bold-4e0a" d="M 319 -1131 
L 319 4513 
L 3519 4513 
L 3519 -1131 
L 319 -1131 
z
M 678 -775 
L 3163 -775 
L 3163 4153 
L 678 4153 
L 678 -775 
z
" transform="scale(0.015625)"/>
      <path id="DejaVuSans-Bold-9ad8" d="M 319 -1131 
L 319 4513 
L 3519 4513 
L 3519 -1131 
L 319 -1131 
z
M 678 -775 
L 3163 -775 
L 3163 4153 
L 678 4153 
L 678 -775 
z
" transform="scale(0.015625)"/>
      <path id="DejaVuSans-Bold-5730" d="M 319 -1131 
L 319 4513 
L 3519 4513 
L 3519 -1131 
L 319 -1131 
z
M 678 -775 
L 3163 -775 
L 3163 4153 
L 678 4153 
L 678 -775 
z
" transform="scale(0.015625)"/>
      <path id="DejaVuSans-Bold-301c" d="M 319 -1131 
L 319 4513 
L 3519 4513 
L 3519 -1131 
L 319 -1131 
z
M 678 -775 
L 3163 -775 
L 3163 4153 
L 678 4153 
L 678 -775 
z
" transform="scale(0.015625)"/>
      <path id="DejaVuSans-Bold-6ca2" d="M 319 -1131 
L 319 4513 
L 3519 4513 
L 3519 -1131 
L 319 -1131 
z
M 678 -775 
L 3163 -775 
L 3163 4153 
L 678 4153 
L 678 -775 
z
" transform="scale(0.015625)"/>
      <path id="DejaVuSans-Bold-7d4c" d="M 319 -1131 
L 319 4513 
L 3519 4513 
L 3519 -1131 
L 319 -1131 
z
M 678 -775 
L 3163 -775 
L 3163 4153 
L 678 4153 
L 678 -775 
z
" transform="scale(0.015625)"/>
      <path id="DejaVuSans-Bold-7531" d="M 319 -1131 
L 319 4513 
L 3519 4513 
L 3519 -1131 
L 319 -1131 
z
M 678 -775 
L 3163 -775 
L 3163 4153 
L 678 4153 
L 678 -775 
z
" transform="scale(0.015625)"/>
      <path id="DejaVuSans-Bold-29" d="M 513 -844 
Q 913 -100 1113 609 
Q 1313 1319 1313 2009 
Q 1313 2700 1113 3408 
Q 913 4116 513 4856 
L 1441 4856 
Q 1916 4091 2145 3389 
Q 2375 2688 2375 2003 
Q 2375 1319 2147 623 
Q 1919 -72 1441 -844 
L 513 -844 
z
" transform="scale(0.015625)"/>
     </defs>
     <use xlink:href="#DejaVuSans-Bold-69cd"/>
     <use xlink:href="#DejaVuSans-Bold-30f6" x="60.009766"/>
     <use xlink:href="#DejaVuSans-Bold-5cb3" x="120.019531"/>
     <use xlink:href="#DejaVuSans-Bold-20" x="180.029297"/>
     <use xlink:href="#DejaVuSans-Bold-2d" x="214.84375"/>
     <use xlink:href="#DejaVuSans-Bold-20" x="256.347656"/>
     <use xlink:href="#DejaVuSans-Bold-43" x="291.162109"/>
     <use xlink:href="#DejaVuSans-Bold-6f" x="364.550781"/>
     <use xlink:href="#DejaVuSans-Bold-75" x="433.251953"/>
     <use xlink:href="#DejaVuSans-Bold-72" x="504.443359"/>
     <use xlink:href="#DejaVuSans-Bold-73" x="553.759766"/>
     <use xlink:href="#DejaVuSans-Bold-65" x="613.28125"/>
     <use xlink:href="#DejaVuSans-Bold-20" x="681.103516"/>
     <use xlink:href="#DejaVuSans-Bold-50" x="715.917969"/>
     <use xlink:href="#DejaVuSans-Bold-72" x="789.208984"/>
     <use xlink:href="#DejaVuSans-Bold-6f" x="838.525391"/>
     <use xlink:href="#DejaVuSans-Bold-66" x="907.226562"/>
     <use xlink:href="#DejaVuSans-Bold-69" x="950.732422"/>
     <use xlink:href="#DejaVuSans-Bold-6c" x="985.009766"/>
     <use xlink:href="#DejaVuSans-Bold-65" x="1019.287109"/>
     <use xlink:href="#DejaVuSans-Bold-20" x="1087.109375"/>
     <use xlink:href="#DejaVuSans-Bold-28" x="1121.923828"/>
     <use xlink:href="#DejaVuSans-Bold-4e0a" x="1167.626953"/>
     <use xlink:href="#DejaVuSans-Bold-9ad8" x="1227.636719"/>
     <use xlink:href="#DejaVuSans-Bold-5730" x="1287.646484"/>
     <use xlink:href="#DejaVuSans-Bold-301c" x="1347.65625"/>
     <use xlink:href="#DejaVuSans-Bold-69cd" x="1407.666016"/>
     <use xlink:href="#DejaVuSans-Bold-6ca2" x="1467.675781"/>
     <use xlink:href="#DejaVuSans-Bold-7d4c" x="1527.685547"/>
     <use xlink:href="#DejaVuSans-Bold-7531" x="1587.695312"/>
     <use xlink:href="#DejaVuSans-Bold-29" x="1647.705078"/>
    </g>
   </g>
   <g id="PathCollection_1">
    <defs>
     <path id="mab19b2a453" d="M 0 3.535534 
C 0.937635 3.535534 1.836992 3.163008 2.5 2.5 
C 3.163008 1.836992 3.535534 0.937635 3.535534 0 
C 3.535534 -0.937635 3.163008 -1.836992 2.5 -2.5 
C 1.836992 -3.163008 0.937635 -3.535534 0 -3.535534 
C -0.937635 -3.535534 -1.836992 -3.163008 -2.5 -2.5 
C -3.163008 -1.836992 -3.535534 -0.937635 -3.535534 0 
C -3.535534 0.937635 -3.163008 1.836992 -2.5 2.5 
C -1.836992 3.163008 -0.937635 3.535534 0 3.535534 
z
" style="stroke: #ff0000"/>
    </defs>
    <g clip-path="url(#p1b693f1d04)">
     <use xlink:href="#mab19b2a453" x="91.316023" y="211.841026" style="fill: #ff0000; stroke: #ff0000"/>
     <use xlink:href="#mab19b2a453" x="228.970155" y="209.785222" style="fill: #ff0000; stroke: #ff0000"/>
     <use xlink:href="#mab19b2a453" x="314.184618" y="206.701517" style="fill: #ff0000; stroke: #ff0000"/>
     <use xlink:href="#mab19b2a453" x="445.283791" y="200.534108" style="fill: #ff0000; stroke: #ff0000"/>
     <use xlink:href="#mab19b2a453" x="602.6028" y="151.194828" style="fill: #ff0000; stroke: #ff0000"/>
     <use xlink:href="#mab19b2a453" x="648.48751" y="156.334336" style="fill: #ff0000; stroke: #ff0000"/>
     <use xlink:href="#mab19b2a453" x="759.921808" y="56.627875" style="fill: #ff0000; stroke: #ff0000"/>
     <use xlink:href="#mab19b2a453" x="812.361477" y="40.181449" style="fill: #ff0000; stroke: #ff0000"/>
    </g>
   </g>
   <g id="legend_1">
    <g id="patch_8">
     <path d="M 411.8325 46.515937 
L 491.845 46.515937 
Q 493.845 46.515937 493.845 44.515937 
L 493.845 30.837812 
Q 493.845 28.837812 491.845 28.837812 
L 411.8325 28.837812 
Q 409.8325 28.837812 409.8325 30.837812 
L 409.8325 44.515937 
Q 409.8325 46.515937 411.8325 46.515937 
z
" style="fill: #ffffff; opacity: 0.8; stroke: #cccccc; stroke-linejoin: miter"/>
    </g>
    <g id="patch_9">
     <path d="M 413.8325 40.43625 
L 433.8325 40.43625 
L 433.8325 33.43625 
L 413.8325 33.43625 
z
" style="fill: #2c5aa0; fill-opacity: 0.3; stroke: #2c5aa0; stroke-opacity: 0.3; stroke-linejoin: miter"/>
    </g>
    <g id="text_26">
     <!-- 標高プロファイル -->
     <g transform="translate(441.8325 40.43625) scale(0.1 -0.1)">
      <defs>
       <path id="DejaVuSans-6a19" d="M 319 -1131 
L 319 4513 
L 3519 4513 
L 3519 -1131 
L 319 -1131 
z
M 678 -775 
L 3163 -775 
L 3163 4153 
L 678 4153 
L 678 -775 
z
" transform="scale(0.015625)"/>
       <path id="DejaVuSans-30d7" d="M 319 -1131 
L 319 4513 
L 3519 4513 
L 3519 -1131 
L 319 -1131 
z
M 678 -775 
L 3163 -775 
L 3163 4153 
L 678 4153 
L 678 -775 
z
" transform="scale(0.015625)"/>
       <path id="DejaVuSans-30d5" d="M 319 -1131 
L 319 4513 
L 3519 4513 
L 3519 -1131 
L 319 -1131 
z
M 678 -775 
L 3163 -775 
L 3163 4153 
L 678 4153 
L 678 -775 
z
" transform="scale(0.015625)"/>
       <path id="DejaVuSans-30a1" d="M 319 -1131 
L 319 4513 
L 3519 4513 
L 3519 -1131 
L 319 -1131 
z
M 678 -775 
L 3163 -775 
L 3163 4153 
L 678 4153 
L 678 -775 
z
" transform="scale(0.015625)"/>
       <path id="DejaVuSans-30a4" d="M 319 -1131 
L 319 4513 
L 3519 4513 
L 3519 -1131 
L 319 -1131 
z
M 678 -775 
L 3163 -775 
L 3163 4153 
L 678 4153 
L 678 -775 
z
" transform="scale(0.015625)"/>
       <path id="DejaVuSans-30eb" d="M 319 -1131 
L 319 4513 
L 3519 4513 
L 3519 -1131 
L 319 -1131 
z
M 678 -775 
L 3163 -775 
L 3163 4153 
L 678 4153 
L 678 -775 
z
" transform="scale(0.015625)"/>
      </defs>
      <use xlink:href="#DejaVuSans-6a19"/>
      <use xlink:href="#DejaVuSans-9ad8" x="60.009766"/>
      <use xlink:href="#DejaVuSans-30d7" x="120.019531"/>
      <use xlink:href="#DejaVuSans-30ed" x="180.029297"/>
      <use xlink:href="#DejaVuSans-30d5" x="240.039062"/>
      <use xlink:href="#DejaVuSans-30a1" x="300.048828"/>
      <use xlink:href="#DejaVuSans-30a4" x="360.058594"/>
      <use xlink:href="#DejaVuSans-30eb" x="420.068359"/>
     </g>
    </g>
   </g>
  </g>
 </g>
 <defs>
  <clipPath id="p1b693f1d04">
   <rect x="55.26375" y="23.837812" width="793.15" height="359.56"/>
  </clipPath>
 </defs>
</svg>
